<?xml version="1.0" encoding="UTF-8"?>
<!-- Generator: visioncortex VTracer 0.6.2 -->
<svg version="1.1" xmlns="http://www.w3.org/2000/svg" width="1280" height="462">
<path d="M0 0 C4.93256614 3.948022 8.58568133 9.03223564 9.75 15.3125 C10.29013544 22.00186965 10.29292232 28.43197945 6.75 34.3125 C4.92596686 36.26369885 3.08967492 38.10912558 1.078125 39.8671875 C-2.27673047 46.04406846 1.37080266 56.35740271 2.59765625 63.02734375 C2.77380966 64.00490128 2.94996307 64.9824588 3.13145447 65.98963928 C3.68814711 69.07710109 4.24986898 72.16361527 4.8125 75.25 C5.37824122 78.3614565 5.94282743 81.47310493 6.5042572 84.58534241 C6.85218856 86.51341991 7.20265255 88.44104249 7.55592346 90.3681488 C7.71286179 91.23657913 7.86980011 92.10500946 8.03149414 92.99975586 C8.17059708 93.76235214 8.30970001 94.52494843 8.45301819 95.31065369 C8.75 97.3125 8.75 97.3125 8.75 100.3125 C9.74 99.9825 10.73 99.6525 11.75 99.3125 C27.39173008 98.19462866 42.92860372 99.66992847 58.37597656 102.03710938 C60.85473705 102.32464967 63.25688795 102.35905878 65.75 102.3125 C65.75 102.9725 65.75 103.6325 65.75 104.3125 C66.905 104.374375 68.06 104.43625 69.25 104.5 C84.37637741 106.20438055 99.89680677 113.2862718 113.75 119.3125 C117.00048853 114.02503866 120.10939843 108.74268158 122.83203125 103.1640625 C125.30259864 98.18087551 128.2360204 93.54056331 131.25 88.875 C133.66180835 85.11647064 135.80583055 81.38151313 137.7109375 77.34765625 C138.97888365 74.86419781 140.45324067 72.54754267 141.9375 70.1875 C144.99691353 65.11039629 144.99691353 65.11039629 145.75 59.3125 C145.07828716 56.9992889 144.29145141 54.75550543 143.45703125 52.49609375 C142.29814453 48.91699058 142.0553757 45.70174861 143.75 42.3125 C143.811875 41.61125 143.87375 40.91 143.9375 40.1875 C145.70502013 33.933198 149.75134675 29.50155378 155.3125 26.25 C162.38613109 23.11207343 169.35914254 23.89317193 176.58984375 26.23046875 C183.34918855 29.20864623 187.65375169 33.4667539 190.58984375 40.25390625 C192.66274209 46.96034205 191.93934669 54.15375481 189.1875 60.5625 C186.13735993 66.08180107 180.51507442 69.94470158 174.75 72.3125 C173.63625 72.32410156 172.5225 72.33570312 171.375 72.34765625 C167.27366209 73.4392839 166.93531531 73.90134244 164.75 77.30859375 C163.72568079 79.10877379 162.72734873 80.92389281 161.75 82.75 C161.20601562 83.71832764 160.66203125 84.68665527 160.1015625 85.68432617 C158.92594682 87.77706172 157.75962677 89.87504021 156.6015625 91.97753906 C154.68929922 95.42183183 152.73015443 98.83669718 150.75 102.2421875 C150.41589111 102.81713455 150.08178223 103.3920816 149.73754883 103.98445129 C149.23904419 104.84208321 149.23904419 104.84208321 148.73046875 105.71704102 C145.71630412 110.90376736 142.72513717 116.10330201 139.75 121.3125 C139.23953125 122.1998584 138.7290625 123.0872168 138.203125 124.00146484 C137.74421875 124.80922363 137.2853125 125.61698242 136.8125 126.44921875 C136.41160156 127.15135498 136.01070312 127.85349121 135.59765625 128.5769043 C134.60371603 130.2900979 134.60371603 130.2900979 134.75 132.3125 C136.78336049 133.84285527 138.82629485 135.27176363 140.9375 136.6875 C147.91468518 141.5219591 154.09591423 146.88762664 160.1796875 152.79345703 C161.71989122 154.28337425 163.2799451 155.74976892 164.84375 157.21484375 C179.78743703 171.42332053 190.79046726 189.09839629 199.25 207.8125 C199.57637451 208.52962158 199.90274902 209.24674316 200.23901367 209.9855957 C202.41600913 214.9891506 203.74112567 219.95481337 204.75 225.3125 C169.40717818 240.15686849 128.90775306 247.00500541 90.75 249.3125 C89.23212891 249.4050708 89.23212891 249.4050708 87.68359375 249.49951172 C71.98572385 250.39837213 56.43698464 250.41200005 40.75 249.3125 C40.02683594 249.26254883 39.30367187 249.21259766 38.55859375 249.16113281 C-21.60022573 244.54032329 -81.36908484 219.79906477 -133.25 190.3125 C-132.76784197 184.7676827 -130.69035679 181.13068115 -127.75 176.5625 C-127.30293701 175.85802734 -126.85587402 175.15355469 -126.39526367 174.42773438 C-122.55206437 168.50865135 -118.14473631 163.3902171 -113.25 158.3125 C-112.03373571 156.92357188 -110.82494366 155.52805216 -109.625 154.125 C-99.45270306 142.54565065 -87.52268424 133.14268144 -74.25 125.3125 C-73.67056641 124.96477539 -73.09113281 124.61705078 -72.49414062 124.25878906 C-62.43538362 118.24959381 -52.16864604 113.53718513 -41.25 109.3125 C-40.30382812 108.9309375 -39.35765625 108.549375 -38.3828125 108.15625 C-35.32255583 106.94559901 -32.44741628 106.34070233 -29.1875 105.875 C-26.07455744 105.4759888 -26.07455744 105.4759888 -23.25 103.3125 C-20.98828125 102.8984375 -20.98828125 102.8984375 -18.5625 102.6875 C-17.35013672 102.57535156 -17.35013672 102.57535156 -16.11328125 102.4609375 C-15.49839844 102.41195312 -14.88351562 102.36296875 -14.25 102.3125 C-15.04447935 89.62822617 -17.29020824 77.06559862 -20.69921875 64.828125 C-21.26633709 62.23788237 -21.31217546 59.95495713 -21.25 57.3125 C-21.55027117 55.63956064 -21.88557767 53.97264616 -22.25 52.3125 C-22.58944795 50.31352872 -22.92421616 48.31374361 -23.25 46.3125 C-24.260625 46.10625 -25.27125 45.9 -26.3125 45.6875 C-32.05487621 44.03685745 -35.69941914 40.121511 -39.5 35.6875 C-43.32759334 28.30571285 -45.25904897 20.79504578 -43.109375 12.62890625 C-40.1678136 4.70006122 -35.47486366 -0.32157635 -28.125 -4.4375 C-18.76377941 -8.50759591 -8.23153655 -5.69399521 0 0 Z M144.75 39.3125 C145.75 41.3125 145.75 41.3125 145.75 41.3125 Z " fill="#0091DB" transform="translate(1001.25,17.6875)"/>
<path d="M0 0 C1.33114704 2.66229407 0.78510738 3.95295721 0.22265625 6.86328125 C-5.25172586 37.0896227 -6.66488875 67.82097112 11.0703125 94.34765625 C17.80035071 103.5980529 25.74381254 110.44401061 35 117 C35.76441406 117.54269531 36.52882813 118.08539063 37.31640625 118.64453125 C46.14017196 124.37445424 56.29318289 128.04876307 66 132 C66.74685059 132.30502441 67.49370117 132.61004883 68.26318359 132.92431641 C76.85800869 136.39634493 85.43258809 139.01375913 94.453125 141.1328125 C97.27555748 141.82287859 99.95367607 142.59468642 102.6875 143.5625 C109.79447031 146.05473236 117.42527309 148.29457271 125 148 C125 148.66 125 149.32 125 150 C126.65 149.67 128.3 149.34 130 149 C130 149.66 130 150.32 130 151 C131.65 150.67 133.3 150.34 135 150 C135 150.66 135 151.32 135 152 C136.14662109 152.07347656 136.14662109 152.07347656 137.31640625 152.1484375 C143.42255517 152.57461877 149.44280688 153.17377552 155.5 154.0625 C162.37465932 155.02824298 169.06838197 155.21040325 176 155 C176 155.33 176 155.66 176 156 C182.77959534 156.87387262 189.40632188 157.16029649 196.23828125 157.16796875 C197.28147018 157.17129715 198.32465912 157.17462555 199.39945984 157.17805481 C201.58864911 157.1830879 203.77784596 157.18546426 205.96704102 157.18530273 C209.31995043 157.18750489 212.6725386 157.20574147 216.02539062 157.22460938 C218.15885305 157.2275409 220.29231702 157.22952731 222.42578125 157.23046875 C223.92737541 157.24124702 223.92737541 157.24124702 225.45930481 157.25224304 C226.39094955 157.24916641 227.3225943 157.24608978 228.2824707 157.24291992 C229.09915726 157.24434494 229.91584381 157.24576996 230.75727844 157.24723816 C233.24509495 156.97298067 234.79063113 156.13289892 237 155 C242.15788689 154.74633343 246.91673409 155.15278902 252 156 C252 155.34 252 154.68 252 154 C253.0725 154.04125 254.145 154.0825 255.25 154.125 C258.81314365 154.26724803 258.81314365 154.26724803 261 153 C263.93758593 151.53120704 266.75804246 152 270 152 C270.66 151.34 271.32 150.68 272 150 C274.28515625 149.47265625 274.28515625 149.47265625 277.0625 149.0625 C282.94369613 148.08745959 288.64424844 146.67787578 294 144 C294.5671875 143.72027344 295.134375 143.44054687 295.71875 143.15234375 C316.68129732 132.56338577 332.1820971 117.96726752 339.75 95 C339.95109375 94.319375 340.1521875 93.63875 340.359375 92.9375 C341 91 341 91 342.046875 89.0625 C343.17099457 86.62997896 343.33738415 84.66689988 343.5 82 C343.71787616 78.426831 344.3673853 76.16074206 346 73 C346.16724737 69.83304044 346.16724737 69.83304044 346 67 C346.66 67 347.32 67 348 67 C347.98839844 66.30777344 347.97679687 65.61554688 347.96484375 64.90234375 C347.88783238 56.55211039 348.36341452 48.32108166 349 40 C349.66 40.33 350.32 40.66 351 41 C352.5226487 48.68974021 352.24385375 56.5669703 352.25 64.375 C352.25067474 65.14110596 352.25134949 65.90721191 352.25204468 66.6965332 C352.23650703 77.77792799 351.80433981 88.22543124 349 99 C348.66706559 100.43338427 348.33507525 101.86698807 348.00390625 103.30078125 C341.7767892 128.91446907 328.09685023 151.98297095 310 171 C309.51901855 171.50821289 309.03803711 172.01642578 308.54248047 172.54003906 C280.05290765 202.45993776 237.44272908 224.33205382 195.64881897 226.09942627 C193.17944712 226.1469894 190.71201255 226.16472404 188.2421875 226.16796875 C186.88300705 226.17296135 186.88300705 226.17296135 185.49636841 226.17805481 C183.58872988 226.18308705 181.68108266 226.18546429 179.7734375 226.18530273 C176.90349243 226.1874784 174.03393927 226.20564435 171.1640625 226.22460938 C121.28008264 226.38336463 74.84845332 206.1954987 39 172 C37.90558594 170.96746094 37.90558594 170.96746094 36.7890625 169.9140625 C31.37167029 164.66797123 26.62428483 158.94991314 22 153 C21.2059375 151.98421875 20.411875 150.9684375 19.59375 149.921875 C11.28330975 138.96457687 -2 121.18512455 -2 107 C-2.66 107 -3.32 107 -4 107 C-4.12375 105.948125 -4.2475 104.89625 -4.375 103.8125 C-4.81125639 100.20956068 -4.81125639 100.20956068 -5.91015625 97.85546875 C-12.7470894 79.94221379 -12.17363524 59.8354167 -12 41 C-11.34 41 -10.68 41 -10 41 C-10.09539063 40.43152344 -10.19078125 39.86304688 -10.2890625 39.27734375 C-11.06117618 33.89948218 -10.77172637 30.22193035 -9 25 C-8.62762652 23.46262948 -8.2741618 21.9205837 -7.9375 20.375 C-7.77121094 19.61703125 -7.60492187 18.8590625 -7.43359375 18.078125 C-7.09043357 16.43342934 -6.78787269 14.78026797 -6.5 13.125 C-6 11 -6 11 -4 8 C-3.855625 6.989375 -3.71125 5.97875 -3.5625 4.9375 C-3.376875 3.968125 -3.19125 2.99875 -3 2 C-2.01 1.34 -1.02 0.68 0 0 Z M345 77 C346 81 346 81 346 81 Z M344 82 C345 84 345 84 345 84 Z M341 94 C342 96 342 96 342 96 Z M340 97 C341 99 341 99 341 99 Z " fill="#0091DB" transform="translate(861,223)"/>
<path d="M0 0 C0 41.58 0 83.16 0 126 C2.41186685 127.20593342 3.91233077 127.12318918 6.60635376 127.12025452 C7.5767308 127.12162918 8.54710785 127.12300385 9.54689026 127.12442017 C10.61503464 127.12082489 11.68317902 127.11722961 12.78369141 127.11352539 C13.90564407 127.11367142 15.02759674 127.11381744 16.18354797 127.1139679 C19.90623889 127.11326909 23.62888028 127.10547815 27.3515625 127.09765625 C29.92703219 127.09579196 32.50250224 127.09436811 35.07797241 127.09336853 C41.17300322 127.0899355 47.26801347 127.08204739 53.36303651 127.07201904 C60.30127972 127.06085056 67.23952376 127.0553456 74.17777371 127.05032361 C88.45185876 127.03986458 102.72592874 127.02226971 117 127 C117.98778185 121.21146019 118.1391731 118.13682871 115 113 C112.53004803 110.91182047 109.88278914 109.44904799 107 108 C106.36449219 107.67515625 105.72898437 107.3503125 105.07421875 107.015625 C99.30488183 104.28219158 93.24703114 102.29816187 87.22314453 100.21118164 C82.846907 98.68551643 78.62278323 97.02064585 74.421875 95.05859375 C71.0615548 93.58980863 67.62589114 92.33386141 64.1875 91.0625 C59.14946529 89.18866526 54.11693068 87.30686942 49.125 85.3125 C48.17882812 84.93738281 47.23265625 84.56226563 46.2578125 84.17578125 C44 83 44 83 42 80 C42.66 80 43.32 80 44 80 C44 79.34 44 78.68 44 78 C45.64453125 76.44921875 45.64453125 76.44921875 47.8125 74.6875 C50.24148189 72.63579453 51.88568832 71.19528246 53.5 68.4375 C55.78028602 64.73203521 59.08266999 61.90844283 63 60 C66.85305827 60.51695996 70.33891257 61.76027615 73.97265625 63.109375 C75.12056641 63.53476563 76.26847656 63.96015625 77.45117188 64.3984375 C79.2387793 65.06746094 79.2387793 65.06746094 81.0625 65.75 C82.22716797 66.18054688 83.39183594 66.61109375 84.59179688 67.0546875 C91.24005249 69.52880157 97.81056876 72.13681182 104.3449707 74.89697266 C106.57179722 75.82210389 108.80167528 76.69319084 111.06640625 77.51953125 C119.34193131 80.58008856 126.13082956 84.40037921 133 90 C134.30324219 90.97066406 134.30324219 90.97066406 135.6328125 91.9609375 C138.03039639 94.02618303 139.28434069 95.72095767 140.75 98.5 C141.15734375 99.2528125 141.5646875 100.005625 141.984375 100.78125 C143.71538614 104.56284356 144.12292655 107.84004629 144.09765625 111.984375 C144.09515869 112.82709961 144.09266113 113.66982422 144.09008789 114.53808594 C144.08098389 115.59801758 144.07187988 116.65794922 144.0625 117.75 C144.041875 121.1325 144.02125 124.515 144 128 C157.53 127.67 171.06 127.34 185 127 C185.90389258 124.28832226 186.12416728 122.72666732 186.12597656 119.94335938 C186.13168671 118.72694763 186.13168671 118.72694763 186.13751221 117.48596191 C186.13905304 116.17806702 186.13905304 116.17806702 186.140625 114.84375 C186.15894414 112.99868548 186.17851362 111.15363303 186.19921875 109.30859375 C186.22825679 106.39839183 186.25000184 103.48896982 186.25048828 100.57861328 C186.25381267 97.77045409 186.28828979 94.9640974 186.328125 92.15625 C186.3210553 91.28432007 186.3139856 90.41239014 186.30670166 89.51403809 C186.35278408 87.23751016 186.44624618 85.20853971 187 83 C189.22875977 81.04394531 189.22875977 81.04394531 192 80 C193.21949341 79.5054834 193.21949341 79.5054834 194.46362305 79.00097656 C197.20249437 78.07621058 199.9419049 77.15465032 202.6875 76.25 C203.64978516 75.92128906 204.61207031 75.59257812 205.60351562 75.25390625 C206.98120117 74.79564453 206.98120117 74.79564453 208.38671875 74.328125 C209.22420654 74.0487207 210.06169434 73.76931641 210.92456055 73.48144531 C213 73 213 73 215 74 C214.99777939 74.57771652 214.99555878 75.15543304 214.99327087 75.75065613 C214.97112982 81.76906719 214.95605653 87.78746666 214.94506836 93.8059082 C214.94004281 96.05135569 214.93322135 98.29679992 214.92456055 100.54223633 C214.91241719 103.77165534 214.90675386 107.00103105 214.90234375 110.23046875 C214.89718246 111.23272995 214.89202118 112.23499115 214.88670349 113.2676239 C214.88662796 114.20822159 214.88655243 115.14881927 214.88647461 116.11791992 C214.884254 116.94176682 214.88203339 117.76561371 214.87974548 118.61442566 C215.00942929 121.18705543 215.31949657 123.51394006 216 126 C219.33155251 127.66577625 223.06536059 127.12007856 226.7265625 127.09765625 C227.58937836 127.0962413 228.45219421 127.09482635 229.34115601 127.09336853 C232.1024723 127.08776188 234.86370812 127.07520827 237.625 127.0625 C239.4947905 127.05748586 241.36458226 127.0529228 243.234375 127.04882812 C247.82294777 127.03779029 252.41146023 127.0205212 257 127 C257.00410889 125.68281982 257.00821777 124.36563965 257.01245117 123.00854492 C257.03420258 118.127286 257.08845079 113.24683777 257.15258789 108.3659668 C257.17580277 106.25243899 257.19017176 104.13879493 257.19555664 102.02514648 C257.20482068 98.98868059 257.24575522 95.95405208 257.29296875 92.91796875 C257.2890361 91.97100632 257.28510345 91.02404388 257.28105164 90.04838562 C257.33566483 87.59983586 257.43559875 85.38308085 258 83 C260.2331543 80.99633789 260.2331543 80.99633789 263 80 C263.80775879 79.67032227 264.61551758 79.34064453 265.44775391 79.00097656 C268.1705633 78.07462203 270.89464619 77.15391822 273.625 76.25 C274.57890625 75.92128906 275.5328125 75.59257812 276.515625 75.25390625 C277.88847656 74.79564453 277.88847656 74.79564453 279.2890625 74.328125 C280.12131348 74.0487207 280.95356445 73.76931641 281.81103516 73.48144531 C284 73 284 73 287 74 C287.06989357 81.25910461 287.12300907 88.51813518 287.15543652 95.77750969 C287.17100989 99.14932116 287.19209282 102.52090031 287.22631836 105.89257812 C287.26292452 109.78000902 287.27977786 113.667115 287.29296875 117.5546875 C287.30845261 118.74988007 287.32393646 119.94507263 287.33988953 121.17648315 C287.34192981 131.44511713 286.11612432 139.72619779 278.8046875 147.25 C278.20914062 147.8275 277.61359375 148.405 277 149 C276.113125 149.928125 275.22625 150.85625 274.3125 151.8125 C264.42937383 158.33909275 252.08198016 157.43825148 240.69970703 157.33618164 C237.87373453 157.31248939 235.04870374 157.31565241 232.22265625 157.32226562 C230.39582781 157.31668986 228.56900326 157.30958062 226.7421875 157.30078125 C225.49802567 157.30214836 225.49802567 157.30214836 224.22872925 157.30354309 C218.29164604 157.23292482 212.7819378 156.30785251 207 155 C201.76048765 153.95209753 198.97471943 154.17255205 194 156 C188.62100311 156.81922009 183.37208769 157.14712789 177.93008423 157.14044189 C177.15851309 157.14341302 176.38694196 157.14638414 175.59198987 157.1494453 C173.02827495 157.15805869 170.46460711 157.15963423 167.90087891 157.16113281 C166.05387779 157.16576607 164.20687762 157.17079141 162.35987854 157.17617798 C157.35777459 157.18925186 152.35568404 157.19573668 147.35356569 157.20018864 C144.22503131 157.20312644 141.09650054 157.20723248 137.96796799 157.21169281 C128.16918189 157.22535224 118.3704041 157.23502746 108.57160914 157.2388947 C97.27861548 157.24337692 85.98574275 157.26093901 74.69278586 157.2898953 C65.94943833 157.31153279 57.2061248 157.32160003 48.46275079 157.32293582 C43.24672242 157.32398202 38.03080797 157.32985092 32.81480789 157.34775543 C27.90801238 157.3642727 23.00141605 157.36637388 18.09460258 157.35761642 C16.29917682 157.35684811 14.50374016 157.36116154 12.7083416 157.37107468 C0.13939149 157.436376 -11.53502096 157.36699789 -21 148 C-28.97096941 138.47256911 -30.30324345 130.84934833 -30.22705078 118.73071289 C-30.22734283 117.51049438 -30.22763489 116.29027588 -30.22793579 115.03308105 C-30.22678532 111.7049907 -30.21678957 108.37715178 -30.20278788 105.04910588 C-30.19024281 101.56443737 -30.18910705 98.07976512 -30.18673706 94.59507751 C-30.18053335 88.0043671 -30.16413763 81.41372343 -30.14403808 74.82304233 C-30.12164446 67.3163817 -30.11067696 59.80971779 -30.10064721 52.30303204 C-30.07977036 36.86864944 -30.04461607 21.43433334 -30 6 C-27.9570573 5.37100912 -25.91408215 4.74212367 -23.87109375 4.11328125 C-22.73341553 3.76305908 -21.5957373 3.41283691 -20.42358398 3.05200195 C-6.80196605 -1.13366101 -6.80196605 -1.13366101 0 0 Z M-2 1 C-2 41.26 -2 81.52 -2 123 C-1.67 123 -1.34 123 -1 123 C-1 82.74 -1 42.48 -1 1 C-1.33 1 -1.66 1 -2 1 Z " fill="#008FD9" transform="translate(488,173)"/>
<path d="M0 0 C1.36880338 -0.01754114 2.73812777 -0.00729177 4.10667419 0.02450562 C4.85492462 0.02216919 5.60317505 0.01983276 6.37409973 0.01742554 C8.84873604 0.01580986 11.32151112 0.04985082 13.79588318 0.08456421 C15.5131564 0.09135229 17.23043893 0.09607529 18.94772339 0.09881592 C22.54671743 0.10949863 26.14509121 0.13621098 29.74388123 0.1758728 C34.3632887 0.22677873 38.98233977 0.25188503 43.6019907 0.26680946 C48.00000458 0.28158349 52.3979342 0.30682104 56.79588318 0.33456421 C58.05998614 0.34193037 58.05998614 0.34193037 59.34962654 0.34944534 C61.72706956 0.36568396 64.10432074 0.38908797 66.48167419 0.41513062 C67.18977737 0.41939056 67.89788055 0.42365051 68.62744141 0.42803955 C73.49921141 0.49286895 73.49921141 0.49286895 75.72947693 1.60800171 C76.05947693 19.42800171 76.38947693 37.24800171 76.72947693 55.60800171 C97.02447693 56.10300171 97.02447693 56.10300171 117.72947693 56.60800171 C117.7062738 52.73307983 117.68307068 48.85815796 117.65916443 44.86581421 C117.6435812 41.12607145 117.63142888 37.38633226 117.61961365 33.64657593 C117.60953629 31.0410908 117.59587423 28.43561702 117.57859802 25.83016968 C117.5544259 22.09202272 117.54301133 18.35402486 117.53416443 14.61581421 C117.52384186 13.4449527 117.51351929 12.27409119 117.50288391 11.06774902 C117.50273285 9.98677948 117.50258179 8.90580994 117.50242615 7.79208374 C117.49798492 6.83722076 117.4935437 5.88235779 117.4889679 4.89855957 C117.72947693 2.60800171 117.72947693 2.60800171 119.72947693 0.60800171 C122.22909939 0.42023161 124.6169189 0.35606099 127.11668396 0.38095093 C127.87775452 0.38065887 128.63882507 0.38036682 129.42295837 0.38006592 C131.94451709 0.3814619 134.46578218 0.39703553 136.98728943 0.41268921 C138.7332086 0.41641839 140.47912987 0.41926581 142.22505188 0.42126465 C146.82497413 0.4289086 151.4247705 0.44856358 156.02464294 0.47067261 C160.71660153 0.49111467 165.40858042 0.50026285 170.10057068 0.51034546 C179.31026147 0.53180879 188.51985874 0.56595388 197.72947693 0.60800171 C199.91978965 5.55417998 201.44381906 10.12539459 202.35447693 15.48300171 C202.47927429 16.19206665 202.60407166 16.90113159 202.73265076 17.63168335 C203.07662484 19.62180283 203.40368856 21.61482443 203.72947693 23.60800171 C203.86482849 24.41366577 204.00018005 25.21932983 204.13963318 26.04940796 C205.70316884 37.30246036 205.59238397 49.59682077 202.72947693 60.60800171 C202.4897113 61.64440796 202.4897113 61.64440796 202.24510193 62.70175171 C200.15354054 69.82436618 194.655877 75.96194949 188.57322693 80.06112671 C186.65186441 81.05136739 184.75943185 81.86944364 182.72947693 82.60800171 C181.21353943 83.19581421 181.21353943 83.19581421 179.66697693 83.79550171 C173.31379098 85.55276591 167.02978694 85.76824864 160.48948669 85.81332397 C159.59113602 85.82322357 158.69278534 85.83312317 157.76721191 85.84332275 C154.81846184 85.87473431 151.86969569 85.89961417 148.92088318 85.92440796 C146.86822101 85.94499508 144.81556291 85.965992 142.76290894 85.98738098 C137.37567962 86.04242009 131.98841321 86.09190905 126.60112 86.14022827 C121.09764832 86.19057635 115.59423014 86.24619279 110.09080505 86.30136108 C99.30374144 86.40872035 88.51663126 86.51021418 77.72947693 86.60800171 C76.48276905 90.92465609 75.34508175 95.22603213 74.35447693 99.60800171 C73.11049585 104.59642835 71.73027062 108.42507717 68.72947693 112.60800171 C66.60447693 113.79550171 66.60447693 113.79550171 64.72947693 114.60800171 C64.44072693 115.23190796 64.15197693 115.85581421 63.85447693 116.49862671 C61.40668885 121.08822936 55.84638355 122.78221151 51.20603943 124.59237671 C34.88155739 129.55052885 15.45046091 127.85376929 0.35447693 120.04550171 C-2.66243819 118.3223573 -3.1259619 118.04168522 -4.27052307 114.60800171 C-3.69728088 112.64682007 -3.69728088 112.64682007 -2.72364807 110.44784546 C-2.37302307 109.65442749 -2.02239807 108.86100952 -1.66114807 108.04354858 C-1.28474182 107.21919312 -0.90833557 106.39483765 -0.52052307 105.54550171 C-0.15958557 104.71727905 0.20135193 103.8890564 0.57322693 103.03573608 C3.34513096 96.86423235 3.34513096 96.86423235 6.72947693 94.60800171 C9.28807068 95.47128296 9.28807068 95.47128296 12.16697693 96.92050171 C18.1825663 99.90783521 22.33654057 100.77694858 29.10447693 100.85800171 C30.3909613 100.88378296 31.67744568 100.90956421 33.00291443 100.93612671 C36.99605925 100.58452905 39.35655428 99.73669067 42.72947693 97.60800171 C45.00633733 93.99643004 45.96227953 90.76072155 46.72947693 86.60800171 C46.14569275 86.58818237 45.56190857 86.56836304 44.96043396 86.54794312 C42.25807425 86.4513731 39.55635299 86.34224198 36.85447693 86.23300171 C35.93666443 86.20206421 35.01885193 86.17112671 34.07322693 86.13925171 C21.52816438 85.60917864 10.02966855 83.46254659 0.58494568 74.65878296 C-4.67723263 68.84269114 -8.04892131 62.34481289 -9.27052307 54.60800171 C-8.94052307 53.61800171 -8.61052307 52.62800171 -8.27052307 51.60800171 C-8.93052307 51.60800171 -9.59052307 51.60800171 -10.27052307 51.60800171 C-10.67151632 39.21576809 -10.82613821 27.0739302 -8.45802307 14.85800171 C-8.29270081 13.99666626 -8.12737854 13.13533081 -7.95704651 12.24789429 C-5.57103782 1.03567547 -5.57103782 1.03567547 0 0 Z M-6.27052307 9.60800171 C-5.27052307 11.60800171 -5.27052307 11.60800171 -5.27052307 11.60800171 Z M-8.27052307 19.60800171 C-7.27052307 21.60800171 -7.27052307 21.60800171 -7.27052307 21.60800171 Z M-9.27052307 26.60800171 C-8.27052307 29.60800171 -8.27052307 29.60800171 -8.27052307 29.60800171 Z M14.72947693 31.60800171 C14.47561639 34.24106683 14.35919766 36.72383543 14.35447693 39.35800171 C14.32998474 40.06182983 14.30549255 40.76565796 14.28025818 41.49081421 C14.25167205 46.61726047 15.28514329 49.59764121 18.72947693 53.60800171 C26.39747578 58.50443471 38.17190164 56.79958922 46.72947693 56.60800171 C47.05947693 47.69800171 47.38947693 38.78800171 47.72947693 29.60800171 C43.35096085 29.56212669 38.9732761 29.52229203 34.5947113 29.49813843 C33.10477373 29.48807128 31.61485596 29.47441653 30.12498474 29.4571228 C27.98528665 29.43290518 25.8458494 29.42152607 23.70603943 29.41268921 C22.41778259 29.40221558 21.12952576 29.39174194 19.80223083 29.38095093 C16.62246887 29.27962507 16.62246887 29.27962507 14.72947693 31.60800171 Z M147.72947693 29.60800171 C146.43170776 32.20354005 146.59997658 34.11505698 146.59666443 37.01815796 C146.59537537 38.09001343 146.5940863 39.1618689 146.59275818 40.26620483 C146.59662537 41.3896228 146.60049255 42.51304077 146.60447693 43.67050171 C146.60060974 44.79778687 146.59674255 45.92507202 146.59275818 47.08651733 C146.59404724 48.15708374 146.5953363 49.22765015 146.59666443 50.33065796 C146.59779236 51.3181604 146.59892029 52.30566284 146.6000824 53.3230896 C146.47309248 55.57361602 146.47309248 55.57361602 147.72947693 56.60800171 C150.76287654 56.86029033 153.81183746 56.79323784 156.85447693 56.79550171 C157.6975238 56.8077478 158.54057068 56.8199939 159.40916443 56.83261108 C165.81586618 56.84753353 171.12687608 56.40090452 176.54197693 52.67050171 C180.46431316 47.17923098 181.02089486 40.25664785 180.72947693 33.60800171 C180.23447693 31.62800171 180.23447693 31.62800171 179.72947693 29.60800171 C169.16947693 29.60800171 158.60947693 29.60800171 147.72947693 29.60800171 Z M47.72947693 30.60800171 C47.72947693 39.51800171 47.72947693 48.42800171 47.72947693 57.60800171 C48.05947693 57.60800171 48.38947693 57.60800171 48.72947693 57.60800171 C48.72947693 48.69800171 48.72947693 39.78800171 48.72947693 30.60800171 C48.39947693 30.60800171 48.06947693 30.60800171 47.72947693 30.60800171 Z M179.72947693 44.60800171 C180.72947693 46.60800171 180.72947693 46.60800171 180.72947693 46.60800171 Z " fill="#0091DB" transform="translate(185.27052307128906,244.39199829101563)"/>
<path d="M0 0 C4.54547246 0.86223826 6.91093134 3.51206184 10.05078125 6.72265625 C10.62781296 7.30156113 11.20484467 7.880466 11.79936218 8.47691345 C13.02072261 9.70499433 14.23848075 10.93666676 15.45288086 12.17163086 C17.2885026 14.03809934 19.1342837 15.89397963 20.98242188 17.74804688 C26.2384811 23.03947686 31.39586942 28.347662 36.2355957 34.02612305 C40.70495114 39.0260869 45.61737418 43.6301692 50.41235352 48.31640625 C51.82994803 49.70399001 53.24125905 51.09798418 54.65234375 52.4921875 C55.48757568 53.31058105 56.32280762 54.12897461 57.18334961 54.97216797 C59 57 59 57 59 59 C59.5671875 59.22945313 60.134375 59.45890625 60.71875 59.6953125 C63.61409015 61.3512091 65.30363426 63.35773667 67.5 65.875 C73.65499357 72.80210966 80.23172325 79.29027875 86.83007812 85.79248047 C91.20558197 90.12436612 95.40201048 94.51756206 99.40966797 99.19140625 C102.2392605 102.40934016 105.33659523 105.34315387 108.43164062 108.3046875 C109.65679491 109.50095465 110.83322875 110.74672311 112 112 C112 112.66 112 113.32 112 114 C74.75271749 111.63897007 24.98606387 102.98502919 -2.3125 74.8125 C-8.34697958 67.63569095 -12.9320131 58.501169 -13 49 C-13.02578125 47.89785156 -13.0515625 46.79570312 -13.078125 45.66015625 C-13.12020523 42.43049823 -13.16106854 39.22610806 -13 36 C-12.505 35.505 -12.505 35.505 -12 35 C-11.76048401 33.35760462 -11.52378166 31.71475445 -11.30053711 30.07006836 C-10.18155968 22.36266817 -7.83467607 15.90550384 -4.375 8.9375 C-3.95476563 8.07189453 -3.53453125 7.20628906 -3.1015625 6.31445312 C-2.07613286 4.2053308 -1.04225463 2.10084453 0 0 Z M-9 22 C-8 24 -8 24 -8 24 Z " fill="#0091DB" transform="translate(901,239)"/>
<path d="M0 0 C1.12647949 0.00142502 2.25295898 0.00285004 3.41357422 0.00431824 C4.6882959 0.00124161 5.96301758 -0.00183502 7.27636719 -0.00500488 C8.67366719 0.00189308 10.07096541 0.00916006 11.46826172 0.01676941 C12.89550739 0.01796122 14.32275385 0.01841437 15.75 0.01815796 C18.74272566 0.01972324 21.73533176 0.0280161 24.72802734 0.04142761 C28.56836162 0.05841754 32.40856443 0.06224197 36.24893188 0.06148243 C39.19654602 0.06175408 42.14413129 0.06723454 45.09173584 0.07448387 C46.50795269 0.07767093 47.92417282 0.07963803 49.34039307 0.08037758 C51.3179237 0.08254071 53.29544216 0.09207727 55.27294922 0.10197449 C56.39942871 0.10578629 57.5259082 0.10959808 58.68652344 0.11352539 C61.34326172 0.24723816 61.34326172 0.24723816 63.34326172 1.24723816 C69.90711818 20.11832549 70.74424205 49.70189806 62.40576172 68.05973816 C60.28247884 71.34117534 59.63138461 71.67717557 56.34326172 73.24723816 C54.98939236 74.89726644 53.65648029 76.56467686 52.34326172 78.24723816 C44.41837437 85.87861116 31.36779985 85.39686367 21.15966797 85.34489441 C20.10416245 85.34347946 19.04865692 85.34206451 17.96116638 85.34060669 C14.60933529 85.33503538 11.25757243 85.32248817 7.90576172 85.30973816 C5.62516373 85.30471945 3.34456469 85.30015719 1.06396484 85.29606628 C-4.50962592 85.28507535 -10.08317722 85.26836592 -15.65673828 85.24723816 C-17.77363421 81.0134463 -16.84166834 75.39884034 -16.84423828 70.74723816 C-16.85648437 69.5806366 -16.86873047 68.41403503 -16.88134766 67.21208191 C-16.88328125 66.09962097 -16.88521484 64.98716003 -16.88720703 63.84098816 C-16.89131592 62.816828 -16.8954248 61.79266785 -16.8996582 60.73747253 C-16.65673828 58.24723816 -16.65673828 58.24723816 -14.65673828 56.24723816 C-12.71026611 55.98222351 -12.71026611 55.98222351 -10.30224609 55.96012878 C-8.95009003 55.94000732 -8.95009003 55.94000732 -7.57061768 55.91947937 C-6.59356873 55.91420227 -5.61651978 55.90892517 -4.60986328 55.90348816 C-3.60590515 55.88886536 -2.60194702 55.87424255 -1.56756592 55.85917664 C1.65266925 55.81255818 4.87284248 55.77844377 8.09326172 55.74723816 C12.31744642 55.70603588 16.5412011 55.6522768 20.76513672 55.59098816 C21.73408875 55.58571106 22.70304077 55.58043396 23.70135498 55.57499695 C28.57847399 55.50342159 32.84894668 55.37415538 37.34326172 53.24723816 C39.63959996 49.80273079 39.88342657 47.30911533 40.34326172 43.24723816 C40.67326172 43.24723816 41.00326172 43.24723816 41.34326172 43.24723816 C41.34326172 40.93723816 41.34326172 38.62723816 41.34326172 36.24723816 C41.01326172 36.24723816 40.68326172 36.24723816 40.34326172 36.24723816 C40.34326172 34.26723816 40.34326172 32.28723816 40.34326172 30.24723816 C22.85326172 29.91723816 5.36326172 29.58723816 -12.65673828 29.24723816 C-11.53000463 21.36010258 -11.53000463 21.36010258 -10.09814453 17.25895691 C-9.79457031 16.38819519 -9.49099609 15.51743347 -9.17822266 14.62028503 C-8.70352539 13.29093933 -8.70352539 13.29093933 -8.21923828 11.93473816 C-7.90664062 11.02917175 -7.59404297 10.12360535 -7.27197266 9.19059753 C-4.16702905 0.38778701 -4.16702905 0.38778701 0 0 Z " fill="#0091DB" transform="translate(85.65673828125,244.7527618408203)"/>
<path d="M0 0 C8.33003101 16.95756313 12.6033211 38.63889197 7.375 57.1875 C5.41586627 62.59224306 2.94158445 66.82710191 -1 71 C-1.52851562 71.59167969 -2.05703125 72.18335938 -2.6015625 72.79296875 C-20.20504944 90.35768149 -55.55331707 92.96502863 -78.98046875 93.09765625 C-81.38283216 93.0911103 -83.78518666 93.07933562 -86.1875 93.0625 C-88.0447168 93.05573242 -88.0447168 93.05573242 -89.93945312 93.04882812 C-92.95968785 93.03716699 -95.97981677 93.02080236 -99 93 C-99.33 91.68 -99.66 90.36 -100 89 C-98.95963542 88.02083333 -97.91927083 87.04166667 -96.87890625 86.0625 C-96.19892578 85.42248047 -95.51894531 84.78246094 -94.81835938 84.12304688 C-93.29767851 82.69189527 -91.77684183 81.26090921 -90.25585938 79.83007812 C-86.30107951 76.10927045 -82.3486694 72.38602454 -78.40234375 68.65625 C-58.25949708 49.62974854 -58.25949708 49.62974854 -55 48 C-54.05720502 46.91805757 -53.14414199 45.8099847 -52.25 44.6875 C-49.50933453 41.41076304 -46.64083409 39.26540788 -43 37 C-40.83295162 34.98572005 -38.98686021 32.79461691 -37.125 30.5 C-34.66802863 27.59907093 -32.34439956 25.84822081 -29 24 C-26.53695293 21.77531233 -24.43665039 19.33253935 -22.3125 16.79296875 C-19.05544425 12.99018423 -15.57715898 9.49710777 -11.9375 6.0625 C-11.33873047 5.47404297 -10.73996094 4.88558594 -10.12304688 4.27929688 C-4.67608784 -0.8574301 -4.67608784 -0.8574301 0 0 Z " fill="#0091DB" transform="translate(1174,264)"/>
<path d="M0 0 C3.87093066 2.53588341 6.9716417 5.47802971 9.5625 9.3125 C10.39415188 14.4212187 10.56626136 19.43840481 7.7890625 23.98046875 C4.13791829 27.72957049 0.91825248 28.38723813 -4.25 28.5 C-8.19964325 28.3797063 -9.64971191 28.2335254 -13 26 C-13 25.34 -13 24.68 -13 24 C-13.99 23.67 -14.98 23.34 -16 23 C-18.57503766 18.8990141 -19.60272395 15.8217916 -19 11 C-17.62170107 6.49755681 -15.67583123 4.49922502 -11.75 2.125 C-7.59749828 0.07222855 -4.65923202 -1.01655971 0 0 Z " fill="#0090D9" transform="translate(579,352)"/>
<path d="M0 0 C1.89499595 1.24154907 3.36144121 2.44622945 4.8125 4.1875 C4.8125 4.8475 4.8125 5.5075 4.8125 6.1875 C5.4725 6.1875 6.1325 6.1875 6.8125 6.1875 C9.23601066 10.47974177 9.67962046 14.3402966 8.8125 19.1875 C6.5 22.0625 6.5 22.0625 3.8125 24.1875 C3.38066406 24.71472656 2.94882812 25.24195313 2.50390625 25.78515625 C-0.61479907 28.37087267 -4.28396387 27.76503291 -8.1640625 27.67578125 C-12.74551376 26.93588279 -15.40361502 24.82155345 -18.1875 21.1875 C-20.20787304 17.62616448 -20.74357846 15.31836853 -20.1875 11.1875 C-16.60771684 2.90925143 -9.49154633 -3.5254315 0 0 Z " fill="#0091DB" transform="translate(759.1875,352.8125)"/>
<path d="M0 0 C4.30011137 2.8883767 7.84644384 6.87308372 9 12 C9.63903708 15.76321833 9.68996088 17.98937846 7.50390625 21.19140625 C1.80921938 27.80955585 1.80921938 27.80955585 -3.5625 28.375 C-8.84387428 28.2882621 -12.91324581 26.2677488 -17 23 C-19.73294738 18.93962103 -20.29257928 16.09908638 -19.5 11.375 C-18.13400017 6.42535864 -15.57268726 3.48526275 -11.10546875 0.90625 C-7.38982906 -0.69306059 -3.94244881 -0.87609973 0 0 Z " fill="#0091DB" transform="translate(679,353)"/>
<path d="M0 0 C0 0.66 0 1.32 0 2 C0.90492188 2.1546875 0.90492188 2.1546875 1.828125 2.3125 C5.05924006 3.33529901 6.18875378 5.14234562 8 7.91015625 C9.80449271 11.68126405 10.11710865 14.96599653 9 19 C6.63889846 22.62728811 3.91908121 26.0404594 0 28 C-5.60469691 28.37364646 -9.18708503 28.20860998 -14 25 C-18.17271471 21.10546627 -19.92243196 17.99458139 -20.26171875 12.24609375 C-19.79576691 8.24725333 -17.86030231 5.727265 -15 3 C-10.13077111 -0.43059308 -5.72910611 -0.34374637 0 0 Z " fill="#0091DB" transform="translate(709,353)"/>
<path d="M0 0 C0.33 0 0.66 0 1 0 C1 37.62 1 75.24 1 114 C0.67 114 0.34 114 0 114 C0 76.38 0 38.76 0 0 Z " fill="#0091DB" transform="translate(457,181)"/>
<path d="M0 0 C0.33 0 0.66 0 1 0 C1 11.55 1 23.1 1 35 C0.67 35 0.34 35 0 35 C0 23.45 0 11.9 0 0 Z " fill="#000102" transform="translate(703,259)"/>
<path d="M0 0 C0 3 0 3 -2 5.1875 C-2.66 5.785625 -3.32 6.38375 -4 7 C-4.66 6.67 -5.32 6.34 -6 6 C-4.02 4.02 -2.04 2.04 0 0 Z " fill="#004366" transform="translate(144,316)"/>
<path d="M0 0 C3.96 0 7.92 0 12 0 C12 0.33 12 0.66 12 1 C8.04 1 4.08 1 0 1 C0 0.67 0 0.34 0 0 Z " fill="#0091DB" transform="translate(1082,379)"/>
<path d="M0 0 C2.64 0 5.28 0 8 0 C8 0.33 8 0.66 8 1 C5.36 1 2.72 1 0 1 C0 0.67 0 0.34 0 0 Z " fill="#0091DB" transform="translate(1046,379)"/>
<path d="M0 0 C0.33 0 0.66 0 1 0 C1 2.64 1 5.28 1 8 C0.67 8 0.34 8 0 8 C0 5.36 0 2.72 0 0 Z " fill="#000102" transform="translate(633,284)"/>
<path d="M0 0 C2.31 0 4.62 0 7 0 C7 0.33 7 0.66 7 1 C4.69 1 2.38 1 0 1 C0 0.67 0 0.34 0 0 Z " fill="#0091DB" transform="translate(1064,379)"/>
<path d="M0 0 C0.66 0.33 1.32 0.66 2 1 C0.68 1.99 -0.64 2.98 -2 4 C-1.34 2.68 -0.68 1.36 0 0 Z " fill="#0091DB" transform="translate(1147,284)"/>
<path d="M0 0 C0 0.99 0 1.98 0 3 C-0.66 2.67 -1.32 2.34 -2 2 C-1.34 1.34 -0.68 0.68 0 0 Z " fill="#003A58" transform="translate(252,357)"/>
<path d="M0 0 C0.66 0.33 1.32 0.66 2 1 C1.01 1.66 0.02 2.32 -1 3 C-0.67 2.01 -0.34 1.02 0 0 Z " fill="#0091DB" transform="translate(1132,298)"/>
<path d="M0 0 C1.65 0 3.3 0 5 0 C5 0.33 5 0.66 5 1 C3.35 1 1.7 1 0 1 C0 0.67 0 0.34 0 0 Z " fill="#0091DB" transform="translate(1022,115)"/>
<path d="M0 0 C4 1 4 1 4 1 Z " fill="#0091DB" transform="translate(1057,379)"/>
<path d="M0 0 C1 4 1 4 1 4 Z " fill="#0091DB" transform="translate(174,282)"/>
<path d="M0 0 C1 4 1 4 1 4 Z " fill="#0091DB" transform="translate(1208,272)"/>
<path d="M0 0 C3 1 3 1 3 1 Z " fill="#0091DB" transform="translate(1128,374)"/>
<path d="" fill="#000102" transform="translate(0,0)"/>
<path d="M0 0 C2 1 2 1 2 1 Z " fill="#0091DB" transform="translate(1073,379)"/>
<path d="M0 0 C2 1 2 1 2 1 Z " fill="#0091DB" transform="translate(1153,367)"/>
<path d="M0 0 C2 1 2 1 2 1 Z " fill="#0091DB" transform="translate(703,352)"/>
<path d="M0 0 C2 1 2 1 2 1 Z " fill="#0091DB" transform="translate(673,352)"/>
<path d="" fill="#0091DB" transform="translate(0,0)"/>
<path d="" fill="#0091DB" transform="translate(0,0)"/>
<path d="" fill="#0091DB" transform="translate(0,0)"/>
<path d="M0 0 C2 1 2 1 2 1 Z " fill="#0091DB" transform="translate(1018,115)"/>
<path d="" fill="#0091DB" transform="translate(0,0)"/>
<path d="" fill="#000102" transform="translate(0,0)"/>
<path d="" fill="#000102" transform="translate(0,0)"/>
<path d="" fill="#0091DB" transform="translate(0,0)"/>
<path d="" fill="#0091DB" transform="translate(0,0)"/>
<path d="" fill="#000102" transform="translate(0,0)"/>
<path d="" fill="#0091DB" transform="translate(0,0)"/>
<path d="" fill="#000102" transform="translate(0,0)"/>
<path d="" fill="#0091DB" transform="translate(0,0)"/>
<path d="" fill="#0091DB" transform="translate(0,0)"/>
<path d="" fill="#0091DB" transform="translate(0,0)"/>
</svg>
