<!DOCTYPE svg PUBLIC "-//W3C//DTD SVG 1.1//EN" "http://www.w3.org/Graphics/SVG/1.1/DTD/svg11.dtd"[]><svg xmlns="http://www.w3.org/2000/svg" version="1.1" width="500" height="500" style="shape-rendering:geometricPrecision; text-rendering:geometricPrecision; image-rendering:optimizeQuality; fill-rule:evenodd; clip-rule:evenodd" xmlns:xlink="http://www.w3.org/1999/xlink" viewBox="0 0 104 36">
  
        <path fill="#4ccb70"
        d="M33.5,18l-1.35-1.4c-1.06-1.1-2.16-2.14-3.3-3.14l-8,0,4.67-2.7A51.71,51.71,0,0,0,17.77,6l-5,0L15,4.73A51.37,51.37,0,0,0,6.81,2L4.92,1.5h0L4.38,3.37A52.9,52.9,0,0,0,2.7,11.84l2.24-1.3-2.51,4.3A53.91,53.91,0,0,0,2.67,24l4.66-2.69-4,6.88c.29,1.49.64,3,1.06,4.45l.54,1.87h0L6.81,34a52.73,52.73,0,0,0,11.78-4.46L20,33l4.66-2.69-2.27-3a51.8,51.8,0,0,0,9.74-8ZM14.42,23.93h-.27c-1.89,0-3.87-1-4-3.46l2.44-.4c.24,1.7,3,1.54,3-.15,0-1-1-1.47-1.86-1.47a4.13,4.13,0,0,0-2,.69l-1.45-.64V12.41h7.38v2.47H12.93v1.48a5.53,5.53,0,0,1,1.51-.23,3.66,3.66,0,0,1,3.85,3.46h0c0,.1,0,.21,0,.31A4,4,0,0,1,14.42,23.93Z">
      </path>
      <path fill="#289b7f" d="M14.56,5,15,4.73l-.1,0L14.4,5Z"></path>
      <circle fill="#fede4a" cx="17.32" cy="7.58" r="2"></circle>
      <circle fill="#ae70f0" cx="4.95" cy="18.17" r="2"></circle>
      <circle fill="#37b0e5" cx="25.05" cy="19" r="2"></circle>
      <circle fill="#fb5f47" cx="9.69" cy="32.02" r="2"></circle>
      <path fill="#4ccb70"
        d="M51.5,10a5,5,0,0,0-4.08,1.75V10.17H42.94V30.24h4.48v-6a5.17,5.17,0,0,0,4,1.69c5,0,7.47-3.5,7.53-7.75S56.44,10,51.5,10ZM51,21.8a3.76,3.76,0,0,1,0-7.5,3.51,3.51,0,0,1,3.5,3.51h0a2.62,2.62,0,0,1,0,.28,3.47,3.47,0,0,1-3.25,3.7Zm10.49,3.91H66V5.6h-4.6Zm18.4-13.94a5,5,0,0,0-4-1.86c-5,0-7.47,3.5-7.53,7.75s2.53,8.25,7.47,8.25a5,5,0,0,0,4.07-1.76v1.56h4.52V10.17H79.84Zm-3.53,9.8a3.5,3.5,0,0,1-3.48-3.51,2.53,2.53,0,0,1,0-.28,3.45,3.45,0,0,1,3.21-3.7h.26a3.75,3.75,0,0,1,0,7.5ZM97,10.17l-1.92,5-1.15,3.93-1.09-3.93-1.93-5H86.19v.71l5.17,13.56-2,5.11v.69H94q3.78-9.69,7.64-19.36v-.71Z">
      </path>

</svg>
