<svg xmlns="http://www.w3.org/2000/svg" version="1.1" width="2400px" height="831px" style="shape-rendering:geometricPrecision; text-rendering:geometricPrecision; image-rendering:optimizeQuality; fill-rule:evenodd; clip-rule:evenodd" xmlns:xlink="http://www.w3.org/1999/xlink">
      <symbol id="i__android" viewBox="0 0 24 24">
      <path fill="currentColor"
        d="M7.2,16.8a.8.8,0,0,0,.8.8h.8v2.8a1.2,1.2,0,0,0,2.4,0V17.6h1.6v2.8a1.2,1.2,0,0,0,2.4,0h0V17.6H16a.8.8,0,0,0,.8-.8h0v-8H7.2Zm-2-8A1.2,1.2,0,0,0,4,10H4v5.6a1.2,1.2,0,0,0,2.4,0h0V10A1.2,1.2,0,0,0,5.2,8.8Zm13.6,0A1.2,1.2,0,0,0,17.6,10v5.6a1.2,1.2,0,0,0,2.4,0V10a1.2,1.2,0,0,0-1.2-1.2Zm-4-4.67,1-1a.41.41,0,0,0,0-.57h0a.39.39,0,0,0-.56,0h0L14.11,3.7A4.68,4.68,0,0,0,12,3.2a4.76,4.76,0,0,0-2.13.5L8.68,2.52a.4.4,0,0,0-.57,0h0a.41.41,0,0,0,0,.57h0l1.05,1A4.78,4.78,0,0,0,7.2,8h9.6A4.76,4.76,0,0,0,14.82,4.13ZM10.4,6.4H9.6V5.6h.8Zm4,0h-.8V5.6h.8Z">
      </path>
    </symbol>
</svg>
