<svg xmlns="http://www.w3.org/2000/svg" version="1.1" width="418px" height="509px" style="shape-rendering:geometricPrecision; text-rendering:geometricPrecision; image-rendering:optimizeQuality; fill-rule:evenodd; clip-rule:evenodd" xmlns:xlink="http://www.w3.org/1999/xlink">
<g><path style="opacity:0.99" fill="#00cf84" d="M 253.5,30.5 C 271.614,31.2839 281.614,40.6173 283.5,58.5C 282.382,72.2658 275.382,81.4325 262.5,86C 259.046,104.767 256.046,123.6 253.5,142.5C 300.198,151.599 337.698,175.265 366,213.5C 369.371,218.706 372.538,224.039 375.5,229.5C 374.99,231.088 373.99,232.255 372.5,233C 337.666,251.62 301.333,266.953 263.5,279C 214.842,292.809 165.508,295.809 115.5,288C 86.474,283.826 58.1407,276.993 30.5,267.5C 39.4736,235.75 56.4736,208.917 81.5,187C 88.539,181.489 95.539,175.989 102.5,170.5C 91.5139,151.199 80.5139,131.865 69.5,112.5C 48.8201,108.794 40.9867,96.7944 46,76.5C 56.6423,60.5049 69.9756,57.8382 86,68.5C 94.0568,77.6914 95.3902,87.6914 90,98.5C 89.3333,99.8333 89.3333,101.167 90,102.5C 101,121.5 112,140.5 123,159.5C 145.103,148.023 168.603,141.19 193.5,139C 205.859,137.705 218.192,137.205 230.5,137.5C 233.776,118.625 237.109,99.7919 240.5,81C 228.818,70.4729 226.318,57.9729 233,43.5C 238.38,36.7347 245.213,32.4014 253.5,30.5 Z"/></g>
<g><path style="opacity:0.983" fill="#00cf83" d="M 379.5,243.5 C 380.91,242.172 382.076,242.505 383,244.5C 407.087,323.561 386.921,388.728 322.5,440C 267.343,477.525 207.343,487.191 142.5,469C 92.0299,452.186 55.8633,419.686 34,371.5C 22.9005,342.11 20.5672,312.11 27,281.5C 25.7464,308.318 30.4131,333.985 41,358.5C 51.0611,375.447 65.2277,387.614 83.5,395C 117.085,405.065 151.419,409.065 186.5,407C 225.418,405.435 263.418,398.769 300.5,387C 317.791,381.186 334.124,373.519 349.5,364C 373.865,346.129 386.199,321.962 386.5,291.5C 385.817,279.12 384.65,266.787 383,254.5C 382.276,250.573 381.109,246.906 379.5,243.5 Z"/></g>
<g><path style="opacity:0.98" fill="#00ce83" d="M 337.5,262.5 C 341.36,264.14 343.86,267.14 345,271.5C 348.466,279.232 351.133,287.232 353,295.5C 358.127,319.722 350.294,338.222 329.5,351C 297.267,368.141 262.934,377.308 226.5,378.5C 263.632,339.707 300.632,301.04 337.5,262.5 Z"/></g>
<g><path style="opacity:0.978" fill="#00cf83" d="M 63.5,287.5 C 64.9217,287.709 66.255,288.209 67.5,289C 100.572,319.9 133.572,351.067 166.5,382.5C 145.386,383.713 124.386,382.547 103.5,379C 90.5115,376.166 78.5115,371.166 67.5,364C 60.3148,357.797 56.1481,349.964 55,340.5C 53.2608,322.04 56.0941,304.374 63.5,287.5 Z"/></g>
</svg>
