<svg xmlns="http://www.w3.org/2000/svg" version="1.1" width="2400px" height="831px" style="shape-rendering:geometricPrecision; text-rendering:geometricPrecision; image-rendering:optimizeQuality; fill-rule:evenodd; clip-rule:evenodd" xmlns:xlink="http://www.w3.org/1999/xlink">
  <defs>
    <symbol id="logo-pegamod" viewBox="0 0 104 36">
      <title>
        <?php echo get_bloginfo('name'); ?>
      </title>
<path style="opacity:0.993" fill="#00ce83" d="M 1909.5,484.5 C 1909.44,483.957 1909.11,483.624 1908.5,483.5C 1904.03,484.114 1899.7,484.78 1895.5,485.5C 1894.17,485.5 1892.83,485.5 1891.5,485.5C 1889.44,484.784 1887.28,484.117 1885,483.5C 1884.54,484.094 1884.37,484.761 1884.5,485.5C 1849.77,482.899 1815.11,479.732 1780.5,476C 1751.83,470.51 1723.5,464.51 1695.5,458C 1685.32,453.628 1674.66,450.628 1663.5,449C 1654.9,445.66 1646.23,442.493 1637.5,439.5C 1636.36,437.579 1636.19,435.579 1637,433.5C 1653.73,382.46 1681.57,338.46 1720.5,301.5C 1731.12,291.86 1742.12,282.693 1753.5,274C 1757.37,271.565 1761.37,269.398 1765.5,267.5C 1765.83,266.667 1766.17,265.833 1766.5,265C 1759.94,253.755 1753.77,242.255 1748,230.5C 1741.14,219.475 1734.14,208.475 1727,197.5C 1723.18,188.765 1718.52,180.431 1713,172.5C 1711.49,168.798 1709.82,165.131 1708,161.5C 1700.78,159.656 1693.61,157.323 1686.5,154.5C 1673,147.986 1664.67,137.32 1661.5,122.5C 1659.26,106.618 1663.6,92.7847 1674.5,81C 1680.43,76.5377 1686.76,72.871 1693.5,70C 1711.6,66.34 1727.1,70.84 1740,83.5C 1742.24,87.7511 1744.91,91.7511 1748,95.5C 1753.75,110.846 1752.25,125.346 1743.5,139C 1749.7,151.197 1756.7,163.031 1764.5,174.5C 1766.54,181.368 1770.04,187.368 1775,192.5C 1779.61,202.502 1785.11,212.002 1791.5,221C 1794.57,229.516 1799.07,237.016 1805,243.5C 1814.62,238.411 1824.45,233.911 1834.5,230C 1845.87,226.663 1857.04,222.83 1868,218.5C 1881.96,216.802 1895.46,213.968 1908.5,210C 1928.64,207.527 1948.81,205.694 1969,204.5C 1975.09,205.616 1981.26,206.283 1987.5,206.5C 1990.5,206.167 1993.5,205.833 1996.5,205.5C 1996.81,204.692 1997.31,204.025 1998,203.5C 1998.33,198.5 1998.67,193.5 1999,188.5C 2000.67,181.5 2002.33,174.5 2004,167.5C 2005.87,151.784 2008.87,136.451 2013,121.5C 2013.21,115.782 2013.71,110.115 2014.5,104.5C 2011.85,100.686 2008.69,97.3531 2005,94.5C 1995.95,81.6018 1992.95,67.2685 1996,51.5C 1996.53,47.3379 1997.53,43.3379 1999,39.5C 2015.58,14.8269 2037.75,7.32688 2065.5,17C 2089.74,30.7122 2098.57,51.2122 2092,78.5C 2087.43,89.0719 2080.6,97.9052 2071.5,105C 2066.44,106.791 2061.44,108.624 2056.5,110.5C 2050.78,144.734 2044.78,178.901 2038.5,213C 2133.51,231.705 2206.35,282.205 2257,364.5C 2257.83,366.828 2258.66,369.162 2259.5,371.5C 2259.17,372.5 2258.83,373.5 2258.5,374.5C 2239.71,385.084 2220.71,395.25 2201.5,405C 2180.7,414.564 2159.7,423.897 2138.5,433C 2124.02,437.873 2109.68,443.207 2095.5,449C 2080.12,453.551 2064.79,458.218 2049.5,463C 2041.01,464.032 2032.67,466.032 2024.5,469C 2014.01,470.969 2003.67,473.302 1993.5,476C 1975.22,477.791 1957.22,480.125 1939.5,483C 1929.47,483.27 1919.47,483.77 1909.5,484.5 Z"></path>
<path style="opacity:0.995" fill="#00d084" d="M 934.5,291.5 C 936.167,291.5 937.833,291.5 939.5,291.5C 939.333,374.167 939.5,456.834 940,539.5C 940.504,543.02 942.337,545.52 945.5,547C 1021.4,547.831 1097.24,547.665 1173,546.5C 1180.23,531.196 1176.73,519.029 1162.5,510C 1156.78,506.473 1150.78,503.473 1144.5,501C 1104.6,485.981 1064.94,470.481 1025.5,454.5C 1038.15,439.347 1051.65,425.014 1066,411.5C 1101.17,425 1136.33,438.5 1171.5,452C 1190.8,459.312 1206.63,471.145 1219,487.5C 1228.63,506.471 1230.13,526.138 1223.5,546.5C 1250.83,547.667 1278.16,547.833 1305.5,547C 1309.26,543.739 1311.09,539.572 1311,534.5C 1311.33,508.167 1311.67,481.833 1312,455.5C 1330.02,448.994 1348.19,442.994 1366.5,437.5C 1366.02,472.562 1366.52,507.562 1368,542.5C 1368.83,544.667 1370.33,546.167 1372.5,547C 1396.83,547.667 1421.17,547.667 1445.5,547C 1447.67,546.167 1449.17,544.667 1450,542.5C 1451.14,513.556 1451.98,484.556 1452.5,455.5C 1470.31,448.895 1488.31,442.895 1506.5,437.5C 1506.67,475.501 1506.5,513.501 1506,551.5C 1500.59,582.567 1482.09,599.401 1450.5,602C 1422.83,602.667 1395.17,602.667 1367.5,602C 1357.32,600.871 1347.65,598.038 1338.5,593.5C 1329.35,598.038 1319.68,600.871 1309.5,602C 1185.5,602.667 1061.5,602.667 937.5,602C 909.106,597.605 891.606,581.439 885,553.5C 883.361,470.853 883.028,388.186 884,305.5C 900.944,300.891 917.778,296.225 934.5,291.5 Z"></path>
<path style="opacity:0.986" fill="#00ce83" d="M 2191.5,429.5 C 2193.39,429.297 2194.89,429.963 2196,431.5C 2198.66,434.982 2200.99,438.649 2203,442.5C 2208.78,455.838 2213.78,469.504 2218,483.5C 2221.29,502.841 2221.29,522.174 2218,541.5C 2211.42,558.528 2200.92,572.694 2186.5,584C 2180.18,587.157 2174.18,590.824 2168.5,595C 2155.55,600.906 2142.55,606.906 2129.5,613C 2121.58,613.785 2114.24,616.118 2107.5,620C 2099.38,621.909 2091.38,624.243 2083.5,627C 2068.39,629.821 2053.39,632.821 2038.5,636C 2024.69,638.134 2010.86,639.967 1997,641.5C 1994.33,641.726 1992,641.059 1990,639.5C 1989.33,638.833 1989.33,638.167 1990,637.5C 2023,603.83 2055.67,569.83 2088,535.5C 2099.26,524.743 2110.43,513.743 2121.5,502.5C 2124.31,497.192 2128.31,493.025 2133.5,490C 2136.64,485.363 2140.3,481.196 2144.5,477.5C 2145.69,476.571 2147.02,476.238 2148.5,476.5C 2148.58,474.071 2149.58,472.071 2151.5,470.5C 2164.99,456.804 2178.32,443.137 2191.5,429.5 Z"></path>
<path style="opacity:0.987" fill="#00ce83" d="M 2267.5,393.5 C 2269.56,394.058 2271.23,395.225 2272.5,397C 2275.5,407.269 2279,417.436 2283,427.5C 2303.84,513.532 2290.5,593.532 2243,667.5C 2232.19,682.305 2220.69,696.472 2208.5,710C 2207.55,710.483 2206.55,710.649 2205.5,710.5C 2203.21,715.97 2199.55,720.47 2194.5,724C 2193.55,724.483 2192.55,724.649 2191.5,724.5C 2191.26,727.263 2189.92,729.429 2187.5,731C 2133.51,777.041 2071.51,805.208 2001.5,815.5C 1965.83,816.833 1930.17,816.833 1894.5,815.5C 1880.42,813.083 1866.42,810.25 1852.5,807C 1790.49,788.98 1737.49,756.147 1693.5,708.5C 1641.56,646.712 1618.4,575.379 1624,494.5C 1625.15,486.12 1626.49,477.787 1628,469.5C 1628.15,466.475 1629.65,464.809 1632.5,464.5C 1632.33,481.503 1632.5,498.503 1633,515.5C 1636.56,534.718 1640.23,554.052 1644,573.5C 1659.6,618.598 1689.43,650.264 1733.5,668.5C 1743.89,670.758 1753.89,673.924 1763.5,678C 1829.58,691.159 1896.25,694.159 1963.5,687C 1979.23,684.248 1995.23,682.248 2011.5,681C 2028.36,677.737 2045.02,674.07 2061.5,670C 2065.17,669.667 2068.83,669.333 2072.5,669C 2089.23,663.261 2106.23,658.261 2123.5,654C 2129.73,651.906 2135.73,649.239 2141.5,646C 2180.13,634.19 2213.8,614.024 2242.5,585.5C 2266.7,554.651 2278.36,519.651 2277.5,480.5C 2277.28,451.537 2273.61,423.203 2266.5,395.5C 2266.86,394.817 2267.2,394.15 2267.5,393.5 Z"></path>
<path style="opacity:0.994" fill="#00d084" d="M 140.5,437.5 C 184.5,437.5 228.5,437.5 272.5,437.5C 277.577,464.604 280.077,491.937 280,519.5C 280.218,540.642 274.551,559.975 263,577.5C 251.61,590.947 237.11,598.78 219.5,601C 185.195,602.444 150.862,602.944 116.5,602.5C 116.5,584.167 116.5,565.833 116.5,547.5C 145.835,547.667 175.169,547.5 204.5,547C 217.477,547.666 225.643,541.833 229,529.5C 229.827,525.541 230.327,521.541 230.5,517.5C 229.833,509.16 229.166,500.826 228.5,492.5C 193.167,492.5 157.833,492.5 122.5,492.5C 128.494,474.184 134.494,455.85 140.5,437.5 Z"></path>
<path style="opacity:0.994" fill="#00d084" d="M 336.5,437.5 C 389.167,437.5 441.833,437.5 494.5,437.5C 494.5,474.167 494.5,510.833 494.5,547.5C 522.5,547.5 550.5,547.5 578.5,547.5C 578.5,510.833 578.5,474.167 578.5,437.5C 631.168,437.333 683.834,437.5 736.5,438C 747.753,473.863 750.586,510.363 745,547.5C 736.17,581.643 714.003,599.81 678.5,602C 616.834,602.5 555.168,602.667 493.5,602.5C 494.185,622.281 489.018,640.281 478,656.5C 467.978,668.262 455.478,676.096 440.5,680C 409.211,687.819 378.877,685.152 349.5,672C 344.902,669.73 340.569,667.063 336.5,664C 342.617,649.647 349.117,635.48 356,621.5C 373.383,633.637 392.55,638.471 413.5,636C 430.18,631.167 438.513,620 438.5,602.5C 423.83,602.667 409.163,602.5 394.5,602C 375.65,600.612 359.15,593.779 345,581.5C 337.304,572.443 331.971,562.11 329,550.5C 323.733,526.267 323.4,501.934 328,477.5C 330.005,463.972 332.839,450.638 336.5,437.5 Z M 374.5,492.5 C 395.833,492.5 417.167,492.5 438.5,492.5C 438.234,510.857 438.567,529.19 439.5,547.5C 427.829,547.667 416.162,547.5 404.5,547C 396.102,546.321 388.436,543.654 381.5,539C 376.668,534.168 373.835,528.335 373,521.5C 372.379,511.774 372.879,502.107 374.5,492.5 Z M 633.5,492.5 C 655.167,492.5 676.833,492.5 698.5,492.5C 701.606,506.006 701.106,519.34 697,532.5C 691.489,540.178 683.989,544.678 674.5,546C 660.871,547.337 647.204,547.837 633.5,547.5C 633.5,529.167 633.5,510.833 633.5,492.5 Z"></path>
<path style="opacity:0.984" fill="#00ce83" d="M 1696.5,474.5 C 1700.39,474.695 1703.72,476.195 1706.5,479C 1764.04,534.039 1822.04,588.539 1880.5,642.5C 1882.15,644.402 1882.48,646.402 1881.5,648.5C 1868.55,649.647 1855.55,649.814 1842.5,649C 1833.55,647.82 1824.55,647.153 1815.5,647C 1805.62,646.127 1795.95,644.46 1786.5,642C 1778.8,641.706 1771.13,641.04 1763.5,640C 1750.5,635.889 1737.5,631.555 1724.5,627C 1716.11,622.446 1708.11,617.28 1700.5,611.5C 1695.09,605.253 1690.25,598.586 1686,591.5C 1679.76,572.485 1677.76,552.818 1680,532.5C 1682.37,524.744 1683.7,516.744 1684,508.5C 1685.65,502.884 1687.31,497.217 1689,491.5C 1691.68,485.865 1694.18,480.199 1696.5,474.5 Z"></path>
<path style="opacity:0.004" fill="#04fe1c" d="M 1891.5,485.5 C 1889.17,485.5 1886.83,485.5 1884.5,485.5C 1884.37,484.761 1884.54,484.094 1885,483.5C 1887.28,484.117 1889.44,484.784 1891.5,485.5 Z"></path>
<path style="opacity:0.004" fill="#04fe1c" d="M 1909.5,484.5 C 1904.93,485.441 1900.26,485.774 1895.5,485.5C 1899.7,484.78 1904.03,484.114 1908.5,483.5C 1909.11,483.624 1909.44,483.957 1909.5,484.5 Z"></path>
<path style="opacity:0.989" fill="#00d084" d="M 1107.5,648.5 C 1134.42,648.257 1144.92,661.257 1139,687.5C 1130.48,701.355 1118.31,705.855 1102.5,701C 1088.88,693.917 1083.71,682.75 1087,667.5C 1090.23,657.093 1097.07,650.76 1107.5,648.5 Z"></path>
<path style="opacity:0.985" fill="#00d084" d="M 1459.5,648.5 C 1479.77,646.449 1491.1,655.449 1493.5,675.5C 1492.01,692.66 1482.67,701.66 1465.5,702.5C 1453.52,702.687 1445.02,697.353 1440,686.5C 1434.73,667.38 1441.23,654.714 1459.5,648.5 Z"/></g>
<path style="opacity:0.983" fill="#00d084" d="M 1300.5,649.5 C 1327.83,647.993 1339,660.66 1334,687.5C 1326.01,701.573 1314.18,706.406 1298.5,702C 1282.24,694.257 1277.08,681.757 1283,664.5C 1286.91,657.075 1292.75,652.075 1300.5,649.5 Z"></path>
<path style="opacity:0.988" fill="#00d083" d="M 1360.5,649.5 C 1387.92,648.751 1398.76,661.751 1393,688.5C 1384.55,701.807 1372.71,706.307 1357.5,702C 1343.12,695.4 1337.62,684.233 1341,668.5C 1344.12,658.544 1350.62,652.21 1360.5,649.5 Z"></path>
    </symbol>
  </defs>
</svg>
