<?xml version="1.0" encoding="UTF-8"?>
<!DOCTYPE svg PUBLIC "-//W3C//DTD SVG 1.1//EN" "http://www.w3.org/Graphics/SVG/1.1/DTD/svg11.dtd">
<svg xmlns="http://www.w3.org/2000/svg" version="1.1" width="2400px" height="831px" style="shape-rendering:geometricPrecision; text-rendering:geometricPrecision; image-rendering:optimizeQuality; fill-rule:evenodd; clip-rule:evenodd" xmlns:xlink="http://www.w3.org/1999/xlink">
<g><path style="opacity:0.996" fill="#008fd8" d="M 2078.5,0.5 C 2107.76,0.369888 2126.26,14.3699 2134,42.5C 2136.59,64.0686 2129.43,81.5686 2112.5,95C 2108.32,98.09 2103.65,100.09 2098.5,101C 2097.3,101.903 2096.47,103.069 2096,104.5C 2090.44,138.312 2084.28,172.146 2077.5,206C 2166.96,223.641 2238.12,269.807 2291,344.5C 2295.79,351.607 2300.12,358.941 2304,366.5C 2304.67,368.167 2304.67,369.833 2304,371.5C 2301.5,373.333 2299,375.167 2296.5,377C 2270.74,390.408 2244.74,403.408 2218.5,416C 2196.3,425.919 2173.97,435.252 2151.5,444C 2135.65,447.952 2120.32,452.952 2105.5,459C 2085.13,463.894 2064.8,468.894 2044.5,474C 2019.76,477.803 1995.09,481.47 1970.5,485C 1942.8,486.578 1915.13,486.578 1887.5,485C 1857.57,481.591 1827.57,477.924 1797.5,474C 1771.49,468.989 1745.49,463.322 1719.5,457C 1701.95,451.191 1684.28,445.524 1666.5,440C 1665.31,438.981 1664.31,437.814 1663.5,436.5C 1684.8,372 1722.13,318.5 1775.5,276C 1782.31,271.09 1789.31,266.424 1796.5,262C 1797.06,261.275 1797.39,260.442 1797.5,259.5C 1796.64,256.949 1795.64,254.449 1794.5,252C 1787,239.835 1779.5,227.668 1772,215.5C 1768.79,207.198 1764.46,199.531 1759,192.5C 1751.2,178.896 1743.7,165.229 1736.5,151.5C 1711.8,150.069 1696.3,137.403 1690,113.5C 1687.3,93.2482 1694.14,77.0815 1710.5,65C 1736.37,52.5303 1758.21,57.3637 1776,79.5C 1780.32,87.1007 1782.82,95.2674 1783.5,104C 1783,113.535 1780.33,122.368 1775.5,130.5C 1795.42,166.676 1816.08,202.343 1837.5,237.5C 1868.32,222.233 1900.65,211.399 1934.5,205C 1967.55,198.709 2000.88,196.876 2034.5,199.5C 2036.69,182.782 2039.86,166.449 2044,150.5C 2045.79,131.461 2048.96,112.794 2053.5,94.5C 2035.43,80.9487 2028.59,62.9487 2033,40.5C 2039.63,17.3611 2054.8,4.02781 2078.5,0.5 Z"/></g>
<g><path style="opacity:0.996" fill="#0090d9" d="M 938.5,291.5 C 940.167,291.5 941.833,291.5 943.5,291.5C 943.333,374.167 943.5,456.834 944,539.5C 944.504,543.02 946.337,545.52 949.5,547C 1025.4,547.831 1101.24,547.665 1177,546.5C 1184.23,531.196 1180.73,519.029 1166.5,510C 1160.78,506.473 1154.78,503.473 1148.5,501C 1108.6,485.981 1068.94,470.481 1029.5,454.5C 1042.15,439.347 1055.65,425.014 1070,411.5C 1105.17,425 1140.33,438.5 1175.5,452C 1194.8,459.312 1210.63,471.145 1223,487.5C 1232.63,506.471 1234.13,526.138 1227.5,546.5C 1254.83,547.667 1282.16,547.833 1309.5,547C 1313.26,543.739 1315.09,539.572 1315,534.5C 1315.33,508.167 1315.67,481.833 1316,455.5C 1334.02,448.994 1352.19,442.994 1370.5,437.5C 1370.02,472.562 1370.52,507.562 1372,542.5C 1372.83,544.667 1374.33,546.167 1376.5,547C 1400.83,547.667 1425.17,547.667 1449.5,547C 1451.67,546.167 1453.17,544.667 1454,542.5C 1455.14,513.556 1455.98,484.556 1456.5,455.5C 1474.31,448.895 1492.31,442.895 1510.5,437.5C 1510.67,475.501 1510.5,513.501 1510,551.5C 1504.59,582.567 1486.09,599.401 1454.5,602C 1426.83,602.667 1399.17,602.667 1371.5,602C 1361.32,600.871 1351.65,598.038 1342.5,593.5C 1333.35,598.038 1323.68,600.871 1313.5,602C 1189.5,602.667 1065.5,602.667 941.5,602C 913.106,597.605 895.606,581.439 889,553.5C 887.361,470.853 887.028,388.186 888,305.5C 904.944,300.891 921.778,296.225 938.5,291.5 Z"/></g>
<g><path style="opacity:0.991" fill="#018fd8" d="M 2233.5,428.5 C 2236.04,428.104 2238.21,428.771 2240,430.5C 2252.94,453.579 2261.27,478.245 2265,504.5C 2268.73,541.469 2255.23,570.302 2224.5,591C 2207.46,601.069 2189.79,609.735 2171.5,617C 2159.01,620.479 2146.68,624.479 2134.5,629C 2114.21,632.51 2094.21,636.843 2074.5,642C 2058.97,644.956 2043.3,646.123 2027.5,645.5C 2027.24,644.022 2027.57,642.689 2028.5,641.5C 2097.33,570.68 2165.66,499.68 2233.5,428.5 Z"/></g>
<g><path style="opacity:0.995" fill="#008fd9" d="M 144.5,437.5 C 188.5,437.5 232.5,437.5 276.5,437.5C 281.577,464.604 284.077,491.937 284,519.5C 284.218,540.642 278.551,559.975 267,577.5C 255.61,590.947 241.11,598.78 223.5,601C 189.195,602.444 154.862,602.944 120.5,602.5C 120.5,584.167 120.5,565.833 120.5,547.5C 149.835,547.667 179.169,547.5 208.5,547C 221.477,547.666 229.643,541.833 233,529.5C 233.827,525.541 234.327,521.541 234.5,517.5C 233.833,509.16 233.166,500.826 232.5,492.5C 197.167,492.5 161.833,492.5 126.5,492.5C 132.494,474.184 138.494,455.85 144.5,437.5 Z"/></g>
<g><path style="opacity:0.995" fill="#0090d9" d="M 340.5,437.5 C 393.167,437.5 445.833,437.5 498.5,437.5C 498.5,474.167 498.5,510.833 498.5,547.5C 526.5,547.5 554.5,547.5 582.5,547.5C 582.5,510.833 582.5,474.167 582.5,437.5C 635.168,437.333 687.834,437.5 740.5,438C 751.753,473.863 754.586,510.363 749,547.5C 740.17,581.643 718.003,599.81 682.5,602C 620.834,602.5 559.168,602.667 497.5,602.5C 498.185,622.281 493.018,640.281 482,656.5C 471.978,668.262 459.478,676.096 444.5,680C 413.211,687.819 382.877,685.152 353.5,672C 348.902,669.73 344.569,667.063 340.5,664C 346.617,649.647 353.117,635.48 360,621.5C 377.383,633.637 396.55,638.471 417.5,636C 434.18,631.167 442.513,620 442.5,602.5C 427.83,602.667 413.163,602.5 398.5,602C 379.65,600.612 363.15,593.779 349,581.5C 341.304,572.443 335.971,562.11 333,550.5C 327.733,526.267 327.4,501.934 332,477.5C 334.005,463.972 336.839,450.638 340.5,437.5 Z M 378.5,492.5 C 399.833,492.5 421.167,492.5 442.5,492.5C 442.234,510.857 442.567,529.19 443.5,547.5C 431.829,547.667 420.162,547.5 408.5,547C 400.102,546.321 392.436,543.654 385.5,539C 380.668,534.168 377.835,528.335 377,521.5C 376.379,511.774 376.879,502.107 378.5,492.5 Z M 637.5,492.5 C 659.167,492.5 680.833,492.5 702.5,492.5C 705.606,506.006 705.106,519.34 701,532.5C 695.489,540.178 687.989,544.678 678.5,546C 664.871,547.337 651.204,547.837 637.5,547.5C 637.5,529.167 637.5,510.833 637.5,492.5 Z"/></g>
<g><path style="opacity:0.992" fill="#018fd8" d="M 2311.5,629.5 C 2309.55,629.227 2308.05,629.893 2307,631.5C 2305.98,630.366 2305.32,630.699 2305,632.5C 2304.67,632.167 2304.33,631.833 2304,631.5C 2303.56,633.076 2302.73,634.41 2301.5,635.5C 2303.78,637.486 2303.12,638.653 2299.5,639C 2302.85,639.089 2303.35,640.256 2301,642.5C 2299.85,641.542 2298.85,641.875 2298,643.5C 2297.38,644.449 2297.55,645.282 2298.5,646C 2296.1,646.508 2295.43,647.675 2296.5,649.5C 2296.15,650.696 2295.65,650.696 2295,649.5C 2294.49,651.878 2293.82,654.212 2293,656.5C 2292.33,657.833 2291.67,657.833 2291,656.5C 2290.53,658.246 2289.86,659.913 2289,661.5C 2288.09,660.346 2287.25,660.513 2286.5,662C 2287.63,663.016 2287.3,663.683 2285.5,664C 2286.05,665.398 2286.38,666.732 2286.5,668C 2285.74,669.512 2284.74,670.846 2283.5,672C 2283.83,672.333 2284.17,672.667 2284.5,673C 2282.86,674.748 2280.86,675.915 2278.5,676.5C 2280.38,677.197 2280.72,678.197 2279.5,679.5C 2276.81,680.509 2274.47,682.009 2272.5,684C 2272.76,685.261 2273.43,686.261 2274.5,687C 2273.07,687.465 2271.9,688.299 2271,689.5C 2268.87,688.137 2268.37,688.471 2269.5,690.5C 2268.41,693.688 2266.57,696.355 2264,698.5C 2263.67,698.167 2263.33,697.833 2263,697.5C 2262.52,698.448 2262.35,699.448 2262.5,700.5C 2261.18,700.33 2260.01,700.663 2259,701.5C 2257.56,705.685 2256.06,709.685 2254.5,713.5C 2252.53,713.739 2250.7,713.406 2249,712.5C 2246.55,714.131 2246.05,715.964 2247.5,718C 2246.55,718.617 2245.72,718.451 2245,717.5C 2242.03,720.297 2239.37,723.297 2237,726.5C 2235.13,725.332 2233.63,725.832 2232.5,728C 2233.5,728.333 2234.5,728.667 2235.5,729C 2233,729.129 2231,730.129 2229.5,732C 2230.17,732.333 2230.83,732.667 2231.5,733C 2228.37,735.152 2225.03,736.818 2221.5,738C 2221.83,738.333 2222.17,738.667 2222.5,739C 2220.79,741.043 2218.79,742.71 2216.5,744C 2217.62,744.249 2218.62,744.749 2219.5,745.5C 2217.7,746.768 2215.7,747.435 2213.5,747.5C 2213.8,744.664 2213.13,744.164 2211.5,746C 2211.96,746.414 2212.29,746.914 2212.5,747.5C 2210.14,748.403 2208.64,750.07 2208,752.5C 2207.58,751.044 2206.74,750.544 2205.5,751C 2206.52,752.049 2206.68,753.216 2206,754.5C 2204.16,753.167 2203.66,753.334 2204.5,755C 2203.23,756.307 2202.23,757.807 2201.5,759.5C 2199.03,761.348 2196.86,761.348 2195,759.5C 2194.5,761.518 2194,763.518 2193.5,765.5C 2192.71,766.794 2191.71,767.961 2190.5,769C 2096.78,827.924 1995.45,843.924 1886.5,817C 1820.08,797.641 1763.91,761.808 1718,709.5C 1683.41,666.235 1661.74,617.235 1653,562.5C 1652.33,535.833 1652.33,509.167 1653,482.5C 1654.25,479.024 1654.92,475.358 1655,471.5C 1656.08,469.447 1656.91,467.28 1657.5,465C 1659.57,464.621 1661.07,465.455 1662,467.5C 1660.48,500.849 1663.15,533.849 1670,566.5C 1673.61,575.561 1676.95,584.894 1680,594.5C 1696.48,629.149 1721.98,654.482 1756.5,670.5C 1767.37,674.041 1778.04,677.875 1788.5,682C 1832.62,692.192 1877.45,697.359 1923,697.5C 1966.46,696.649 2009.62,692.482 2052.5,685C 2057.5,684.667 2062.5,684.333 2067.5,684C 2088.88,678.482 2110.55,673.482 2132.5,669C 2138.83,666.667 2145.17,664.333 2151.5,662C 2157.38,659.985 2163.38,658.485 2169.5,657.5C 2180.09,652.466 2191.09,648.299 2202.5,645C 2212.39,639.8 2222.56,634.967 2233,630.5C 2250.59,620.246 2266.76,608.079 2281.5,594C 2298.84,574.586 2311.01,552.419 2318,527.5C 2322.07,513.034 2323.91,498.2 2323.5,483C 2323.09,470.497 2322.59,457.997 2322,445.5C 2318.26,427.93 2314.76,410.263 2311.5,392.5C 2315.17,392.327 2317.67,393.993 2319,397.5C 2324.15,411.284 2328.49,425.284 2332,439.5C 2336.93,461.205 2338.77,483.205 2337.5,505.5C 2337.33,518.5 2337.17,531.5 2337,544.5C 2333.72,563.618 2329.39,582.285 2324,600.5C 2319.91,610.287 2315.74,619.954 2311.5,629.5 Z"/></g>
<g><path style="opacity:0.989" fill="#018ed8" d="M 1727.5,473.5 C 1729.26,474.072 1730.92,474.906 1732.5,476C 1792.5,532.795 1852.83,589.295 1913.5,645.5C 1916.92,648.42 1917.26,651.587 1914.5,655C 1882.94,655.27 1851.6,653.27 1820.5,649C 1816.83,648 1813.17,647 1809.5,646C 1798.17,645.751 1787.17,643.751 1776.5,640C 1766.45,636.143 1756.45,631.977 1746.5,627.5C 1725.4,614.921 1712.9,596.588 1709,572.5C 1707.63,553.921 1708.63,535.588 1712,517.5C 1714.53,510.036 1716.53,502.369 1718,494.5C 1720.68,487.214 1723.84,480.214 1727.5,473.5 Z"/></g>
<g><path style="opacity:0.987" fill="#0090d9" d="M 1111.5,648.5 C 1138.42,648.257 1148.92,661.257 1143,687.5C 1134.48,701.355 1122.31,705.855 1106.5,701C 1092.88,693.917 1087.71,682.75 1091,667.5C 1094.23,657.093 1101.07,650.76 1111.5,648.5 Z"/></g>
<g><path style="opacity:0.986" fill="#008fd9" d="M 1463.5,648.5 C 1483.77,646.449 1495.1,655.449 1497.5,675.5C 1496.01,692.66 1486.67,701.66 1469.5,702.5C 1457.52,702.687 1449.02,697.353 1444,686.5C 1438.73,667.38 1445.23,654.714 1463.5,648.5 Z"/></g>
<g><path style="opacity:0.989" fill="#0090d9" d="M 1304.5,649.5 C 1331.83,647.993 1343,660.66 1338,687.5C 1330.01,701.573 1318.18,706.406 1302.5,702C 1286.24,694.257 1281.08,681.757 1287,664.5C 1290.91,657.075 1296.75,652.075 1304.5,649.5 Z"/></g>
<g><path style="opacity:0.985" fill="#0090d9" d="M 1364.5,649.5 C 1391.92,648.751 1402.76,661.751 1397,688.5C 1388.55,701.807 1376.71,706.307 1361.5,702C 1347.12,695.4 1341.62,684.233 1345,668.5C 1348.12,658.544 1354.62,652.21 1364.5,649.5 Z"/></g>
<g><path style="opacity:0.611" fill="#0f86d4" d="M 2311.5,629.5 C 2286.5,682.372 2250.16,726.205 2202.5,761C 2199.71,763.06 2196.71,764.56 2193.5,765.5C 2194,763.518 2194.5,761.518 2195,759.5C 2196.86,761.348 2199.03,761.348 2201.5,759.5C 2202.23,757.807 2203.23,756.307 2204.5,755C 2203.66,753.334 2204.16,753.167 2206,754.5C 2206.68,753.216 2206.52,752.049 2205.5,751C 2206.74,750.544 2207.58,751.044 2208,752.5C 2208.64,750.07 2210.14,748.403 2212.5,747.5C 2212.29,746.914 2211.96,746.414 2211.5,746C 2213.13,744.164 2213.8,744.664 2213.5,747.5C 2215.7,747.435 2217.7,746.768 2219.5,745.5C 2218.62,744.749 2217.62,744.249 2216.5,744C 2218.79,742.71 2220.79,741.043 2222.5,739C 2222.17,738.667 2221.83,738.333 2221.5,738C 2225.03,736.818 2228.37,735.152 2231.5,733C 2230.83,732.667 2230.17,732.333 2229.5,732C 2231,730.129 2233,729.129 2235.5,729C 2234.5,728.667 2233.5,728.333 2232.5,728C 2233.63,725.832 2235.13,725.332 2237,726.5C 2239.37,723.297 2242.03,720.297 2245,717.5C 2245.72,718.451 2246.55,718.617 2247.5,718C 2246.05,715.964 2246.55,714.131 2249,712.5C 2250.7,713.406 2252.53,713.739 2254.5,713.5C 2256.06,709.685 2257.56,705.685 2259,701.5C 2260.01,700.663 2261.18,700.33 2262.5,700.5C 2262.35,699.448 2262.52,698.448 2263,697.5C 2263.33,697.833 2263.67,698.167 2264,698.5C 2266.57,696.355 2268.41,693.688 2269.5,690.5C 2268.37,688.471 2268.87,688.137 2271,689.5C 2271.9,688.299 2273.07,687.465 2274.5,687C 2273.43,686.261 2272.76,685.261 2272.5,684C 2274.47,682.009 2276.81,680.509 2279.5,679.5C 2280.72,678.197 2280.38,677.197 2278.5,676.5C 2280.86,675.915 2282.86,674.748 2284.5,673C 2284.17,672.667 2283.83,672.333 2283.5,672C 2284.74,670.846 2285.74,669.512 2286.5,668C 2286.38,666.732 2286.05,665.398 2285.5,664C 2287.3,663.683 2287.63,663.016 2286.5,662C 2287.25,660.513 2288.09,660.346 2289,661.5C 2289.86,659.913 2290.53,658.246 2291,656.5C 2291.67,657.833 2292.33,657.833 2293,656.5C 2293.82,654.212 2294.49,651.878 2295,649.5C 2295.65,650.696 2296.15,650.696 2296.5,649.5C 2295.43,647.675 2296.1,646.508 2298.5,646C 2297.55,645.282 2297.38,644.449 2298,643.5C 2298.85,641.875 2299.85,641.542 2301,642.5C 2303.35,640.256 2302.85,639.089 2299.5,639C 2303.12,638.653 2303.78,637.486 2301.5,635.5C 2302.73,634.41 2303.56,633.076 2304,631.5C 2304.33,631.833 2304.67,632.167 2305,632.5C 2305.32,630.699 2305.98,630.366 2307,631.5C 2308.05,629.893 2309.55,629.227 2311.5,629.5 Z"/></g>
<g><path style="opacity:0.016" fill="#000000" d="M 1785.5,802.5 C 1786.5,802.5 1787.5,802.5 1788.5,802.5C 1788.5,803.5 1788.5,804.5 1788.5,805.5C 1785.51,805.854 1784.51,804.854 1785.5,802.5 Z"/></g>
</svg>
