<?xml version="1.0" encoding="UTF-8"?>
<!DOCTYPE svg PUBLIC "-//W3C//DTD SVG 1.1//EN" "http://www.w3.org/Graphics/SVG/1.1/DTD/svg11.dtd">
<svg xmlns="http://www.w3.org/2000/svg" version="1.1" width="418px" height="509px" style="shape-rendering:geometricPrecision; text-rendering:geometricPrecision; image-rendering:optimizeQuality; fill-rule:evenodd; clip-rule:evenodd" xmlns:xlink="http://www.w3.org/1999/xlink">
<g><path style="opacity:0.99" fill="#008fd8" d="M 252.5,32.5 C 274.317,33.4813 284.15,44.8147 282,66.5C 280.713,70.3695 279.047,74.0362 277,77.5C 272.317,81.6672 267.317,85.3339 262,88.5C 258.832,106.843 255.665,125.176 252.5,143.5C 306.462,153.948 347.129,182.782 374.5,230C 320.501,263.224 261.834,283.558 198.5,291C 141.365,293.366 85.698,285.532 31.5,267.5C 37.0043,249.16 45.1709,232.16 56,216.5C 69.7098,199.291 85.5431,184.291 103.5,171.5C 92.559,151.786 81.2257,132.286 69.5,113C 51.7807,109.94 43.9473,99.44 46,81.5C 49.9733,70.2002 57.9733,64.2002 70,63.5C 84.8559,65.0225 93.0225,73.1892 94.5,88C 94.5107,93.3041 92.8441,97.9708 89.5,102C 99.4066,118.319 108.907,134.819 118,151.5C 119.938,154.39 122.105,157.056 124.5,159.5C 157.785,144.277 192.785,137.443 229.5,139C 233.681,120.095 237.348,101.095 240.5,82C 236.281,79.448 233.114,75.948 231,71.5C 225.229,51.1534 232.395,38.1534 252.5,32.5 Z"/></g>
<g><path style="opacity:0.982" fill="#018fd8" d="M 378.5,241.5 C 381.081,244.32 382.914,247.654 384,251.5C 402.563,317.085 388.063,373.919 340.5,422C 291.382,466.358 233.715,483.358 167.5,473C 111.305,462.025 69.1388,431.858 41,382.5C 25.1279,350.239 20.9612,316.573 28.5,281.5C 29.0968,296.88 30.2634,312.213 32,327.5C 39.6128,366.446 62.7795,390.28 101.5,399C 177.24,412.658 250.906,405.325 322.5,377C 369.621,357.618 390.121,322.452 384,271.5C 382.48,261.425 380.647,251.425 378.5,241.5 Z"/></g>
<g><path style="opacity:0.978" fill="#018fd8" d="M 336.5,262.5 C 338.592,262.561 340.092,263.561 341,265.5C 351.521,284.763 354.521,305.096 350,326.5C 343.708,338.913 334.208,348.08 321.5,354C 291.402,368.182 259.736,375.849 226.5,377C 263.37,338.964 300.037,300.798 336.5,262.5 Z"/></g>
<g><path style="opacity:0.977" fill="#018fd8" d="M 64.5,286.5 C 66.9324,287.75 69.2657,289.25 71.5,291C 80.8594,299.695 90.1927,308.361 99.5,317C 121.749,338.482 144.082,359.982 166.5,381.5C 136.668,383.612 107.668,379.779 79.5,370C 66.7402,363.655 58.9069,353.488 56,339.5C 54.5131,321.121 57.3464,303.454 64.5,286.5 Z"/></g>
<g><path style="opacity:0.067" fill="#000000" d="M 96.5,462.5 C 97.8333,463.167 97.8333,463.167 96.5,462.5 Z"/></g>
</svg>
