<?xml version="1.0" encoding="UTF-8"?>
<!DOCTYPE svg PUBLIC "-//W3C//DTD SVG 1.1//EN" "http://www.w3.org/Graphics/SVG/1.1/DTD/svg11.dtd">
<svg xmlns="http://www.w3.org/2000/svg" version="1.1" width="2249px" height="813px" style="shape-rendering:geometricPrecision; text-rendering:geometricPrecision; image-rendering:optimizeQuality; fill-rule:evenodd; clip-rule:evenodd" xmlns:xlink="http://www.w3.org/1999/xlink">
<g><path style="opacity:0.996" fill="#008fd8" d="M 1721.5,19.5 C 1748.42,17.6999 1766.58,29.3666 1776,54.5C 1780.68,75.1393 1775.01,92.1393 1759,105.5C 1763.09,138.37 1768.59,171.036 1775.5,203.5C 1806.73,202.752 1837.73,204.918 1868.5,210C 1900.04,216.328 1930.37,226.495 1959.5,240.5C 1978.7,207.257 1998.04,174.09 2017.5,141C 2007.09,124.862 2006.92,108.695 2017,92.5C 2034.56,71.5022 2055.39,67.6689 2079.5,81C 2097.97,97.6087 2101.8,117.109 2091,139.5C 2081.39,152.044 2068.72,159.377 2053,161.5C 2033.59,194.647 2014.42,227.981 1995.5,261.5C 2052.81,299.651 2093.64,350.984 2118,415.5C 2118.83,418.833 2119.67,422.167 2120.5,425.5C 2120.47,427.029 2119.8,428.196 2118.5,429C 2109.89,432.739 2100.89,435.405 2091.5,437C 2081.99,440.795 2072.32,444.128 2062.5,447C 2040.88,451.991 2019.21,456.658 1997.5,461C 1989.82,461.514 1982.15,462.181 1974.5,463C 1965.79,465.382 1956.79,467.049 1947.5,468C 1909.91,471.809 1872.25,472.809 1834.5,471C 1811.64,468.389 1788.97,465.056 1766.5,461C 1747.12,456.59 1727.79,451.924 1708.5,447C 1649.41,427.742 1592.41,403.409 1537.5,374C 1532.77,371.535 1528.27,368.701 1524,365.5C 1523.79,361.887 1524.79,358.554 1527,355.5C 1555.66,307.509 1594.49,270.009 1643.5,243C 1652.58,239.334 1661.42,235.168 1670,230.5C 1682.59,226.117 1695.09,221.617 1707.5,217C 1716.47,214.622 1725.47,212.788 1734.5,211.5C 1729.44,179.875 1724.11,148.208 1718.5,116.5C 1717.71,115.758 1717.05,114.925 1716.5,114C 1690.79,103.928 1679.63,85.0943 1683,57.5C 1688.56,37.3318 1701.39,24.6652 1721.5,19.5 Z"/></g>
<g><path style="opacity:0.008" fill="#110f8e" d="M 1515.5,390.5 C 1515.63,388.708 1515.3,387.042 1514.5,385.5C 1514.56,384.957 1514.89,384.624 1515.5,384.5C 1516.79,386.636 1516.79,388.636 1515.5,390.5 Z"/></g>
<g><path style="opacity:0.996" fill="#0090d9" d="M 850.5,303.5 C 852.167,303.5 853.833,303.5 855.5,303.5C 855.333,376.501 855.5,449.501 856,522.5C 856.319,525.973 857.819,528.806 860.5,531C 928.169,531.833 995.836,531.667 1063.5,530.5C 1070.22,516.512 1066.88,505.679 1053.5,498C 1048.45,494.806 1043.11,492.139 1037.5,490C 1002.57,476.691 967.738,463.191 933,449.5C 932.333,448.833 932.333,448.167 933,447.5C 944.735,435.102 956.402,422.769 968,410.5C 1005.23,424.03 1042.06,438.53 1078.5,454C 1109.1,471.555 1119.1,497.222 1108.5,531C 1133.25,531.98 1157.92,531.647 1182.5,530C 1184.77,528.442 1185.93,526.276 1186,523.5C 1186.17,498.827 1186.67,474.16 1187.5,449.5C 1203.32,443.586 1219.32,438.253 1235.5,433.5C 1235.04,464.542 1235.54,495.542 1237,526.5C 1237.95,528.57 1239.45,530.07 1241.5,531C 1263.17,531.667 1284.83,531.667 1306.5,531C 1308.35,529.482 1309.85,527.649 1311,525.5C 1311.21,521.911 1311.71,518.411 1312.5,515C 1311.34,493.573 1311.17,472.073 1312,450.5C 1328.2,443.934 1344.7,438.267 1361.5,433.5C 1361.67,464.168 1361.5,494.835 1361,525.5C 1360.11,558.393 1343.27,576.56 1310.5,580C 1286.17,580.667 1261.83,580.667 1237.5,580C 1228.13,579.283 1219.29,576.783 1211,572.5C 1203.01,576.624 1194.51,579.124 1185.5,580C 1072.8,580.99 960.132,580.657 847.5,579C 824.242,573.074 810.742,558.241 807,534.5C 806.5,461.501 806.333,388.501 806.5,315.5C 821.44,312.101 836.107,308.101 850.5,303.5 Z"/></g>
<g><path style="opacity:0.991" fill="#018fd8" d="M 1585.5,418.5 C 1588.86,417.79 1590.69,419.124 1591,422.5C 1592.67,423.5 1594.33,424.5 1596,425.5C 1657.3,489.804 1718.97,553.804 1781,617.5C 1781.68,618.784 1781.52,619.951 1780.5,621C 1773.83,621.667 1767.17,621.667 1760.5,621C 1730.11,616.046 1700.11,609.713 1670.5,602C 1663.7,598.253 1656.37,595.92 1648.5,595C 1635.36,589.263 1622.36,583.263 1609.5,577C 1591.09,567.593 1576.93,553.76 1567,535.5C 1560.4,516.985 1558.73,497.985 1562,478.5C 1566.63,457.093 1574.46,437.093 1585.5,418.5 Z"/></g>
<g><path style="opacity:0.996" fill="#008fd9" d="M 144.5,433.5 C 183.833,433.5 223.167,433.5 262.5,433.5C 264.742,448.439 266.576,463.439 268,478.5C 268.667,491.5 268.667,504.5 268,517.5C 266.781,538.437 258.281,555.603 242.5,569C 233.877,574.319 224.544,577.652 214.5,579C 184.199,580.444 153.866,580.944 123.5,580.5C 123.5,564.167 123.5,547.833 123.5,531.5C 152.533,531.941 181.533,531.441 210.5,530C 219.297,526.599 223.797,520.099 224,510.5C 224.542,501.429 224.042,492.429 222.5,483.5C 191.174,482.5 159.84,482.167 128.5,482.5C 133.833,466.167 139.167,449.833 144.5,433.5 Z"/></g>
<g><path style="opacity:0.995" fill="#0090d9" d="M 318.5,433.5 C 365.5,433.5 412.5,433.5 459.5,433.5C 459.5,466.167 459.5,498.833 459.5,531.5C 484.5,531.5 509.5,531.5 534.5,531.5C 534.5,498.833 534.5,466.167 534.5,433.5C 581.505,433.167 628.505,433.5 675.5,434.5C 685.081,465.972 687.581,497.972 683,530.5C 675.373,561.445 655.54,577.945 623.5,580C 568.834,580.5 514.168,580.667 459.5,580.5C 459.405,621.752 439.072,645.585 398.5,652C 370.541,656.241 344.541,651.075 320.5,636.5C 319.417,635.635 319.251,634.635 320,633.5C 325.313,621.71 330.479,609.877 335.5,598C 343.794,602.136 352.461,605.802 361.5,609C 374.222,612.706 386.555,611.706 398.5,606C 405.568,599.364 409.568,591.198 410.5,581.5C 397.179,580.667 383.846,580.167 370.5,580C 348.64,578.66 331.474,569.16 319,551.5C 311.62,535.859 308.12,519.359 308.5,502C 309.456,478.806 312.79,455.973 318.5,433.5 Z M 352.5,482.5 C 371.833,482.5 391.167,482.5 410.5,482.5C 410.5,498.833 410.5,515.167 410.5,531.5C 396.396,532.094 382.396,531.261 368.5,529C 359.93,526.096 354.43,520.263 352,511.5C 351.421,501.82 351.588,492.153 352.5,482.5 Z M 583.5,482.5 C 602.833,482.5 622.167,482.5 641.5,482.5C 641.974,489.349 642.64,496.183 643.5,503C 642.376,521.079 632.71,530.412 614.5,531C 604.172,531.5 593.839,531.666 583.5,531.5C 583.5,515.167 583.5,498.833 583.5,482.5 Z"/></g>
<g><path style="opacity:0.992" fill="#018fd8" d="M 1514.5,385.5 C 1515.3,387.042 1515.63,388.708 1515.5,390.5C 1512.53,405.137 1509.69,419.803 1507,434.5C 1505.2,455.173 1505.2,475.84 1507,496.5C 1511.64,517.792 1519.64,537.792 1531,556.5C 1547.67,577.595 1567.84,594.595 1591.5,607.5C 1622.22,622.093 1653.89,634.093 1686.5,643.5C 1693.28,644.18 1699.95,645.346 1706.5,647C 1719.31,650.127 1731.98,653.461 1744.5,657C 1779.12,661.588 1813.79,665.588 1848.5,669C 1882.38,670.562 1916.04,669.228 1949.5,665C 1965.72,662.063 1982.05,659.396 1998.5,657C 2011.12,652.885 2023.62,648.385 2036,643.5C 2067.07,628.766 2090.23,605.932 2105.5,575C 2110.89,560.96 2115.39,546.794 2119,532.5C 2120.3,517.491 2121.47,502.491 2122.5,487.5C 2124.5,480.557 2124.83,473.557 2123.5,466.5C 2122.19,462.317 2122.19,457.984 2123.5,453.5C 2124.89,452.355 2126.22,452.355 2127.5,453.5C 2144.77,554.852 2116.1,640.518 2041.5,710.5C 1991.92,753.643 1934.59,780.143 1869.5,790C 1837.83,790.667 1806.17,790.667 1774.5,790C 1686.1,776.922 1612.94,736.422 1555,668.5C 1501.71,600.355 1482.05,523.355 1496,437.5C 1499.87,422.37 1504.2,407.37 1509,392.5C 1509.99,389.36 1511.82,387.026 1514.5,385.5 Z"/></g>
<g><path style="opacity:0.989" fill="#018ed8" d="M 2059.5,460.5 C 2061.37,460.859 2062.87,461.859 2064,463.5C 2076.14,491.465 2081.14,520.798 2079,551.5C 2075.12,577.041 2061.62,595.541 2038.5,607C 2024.77,612.597 2010.77,617.263 1996.5,621C 1979.43,623.139 1962.43,625.472 1945.5,628C 1925.85,629.27 1906.18,629.603 1886.5,629C 1886,628.5 1885.5,628 1885,627.5C 1885.57,625.035 1886.73,622.702 1888.5,620.5C 1945.57,567.093 2002.57,513.759 2059.5,460.5 Z"/></g>
<g><path style="opacity:0.016" fill="#0d40b5" d="M 2123.5,466.5 C 2124.83,473.557 2124.5,480.557 2122.5,487.5C 2123.09,480.515 2123.42,473.515 2123.5,466.5 Z"/></g>
<g><path style="opacity:0.983" fill="#0090d9" d="M 1004.5,621.5 C 1025.64,619.804 1035.8,629.471 1035,650.5C 1032.95,660.222 1027.11,666.389 1017.5,669C 993.469,670.304 983.636,659.137 988,635.5C 991.593,628.394 997.093,623.727 1004.5,621.5 Z"/></g>
<g><path style="opacity:0.986" fill="#0090d9" d="M 1318.5,621.5 C 1336.64,619.709 1346.97,627.709 1349.5,645.5C 1346.07,665.558 1334.41,673.058 1314.5,668C 1300.89,660.521 1296.72,649.355 1302,634.5C 1305.77,627.877 1311.27,623.543 1318.5,621.5 Z"/></g>
<g><path style="opacity:0.988" fill="#0090d9" d="M 1177.5,622.5 C 1202,621.189 1211.83,632.522 1207,656.5C 1199.53,669.087 1188.7,673.253 1174.5,669C 1161.68,662.222 1157.18,651.722 1161,637.5C 1164.21,629.786 1169.71,624.786 1177.5,622.5 Z"/></g>
<g><path style="opacity:0.983" fill="#0090d9" d="M 1229.5,622.5 C 1248.63,619.662 1259.29,627.662 1261.5,646.5C 1260.44,661.727 1252.27,669.727 1237,670.5C 1216.93,667.722 1209.27,656.389 1214,636.5C 1217.17,629.493 1222.33,624.826 1229.5,622.5 Z"/></g>
<g><path style="opacity:0.016" fill="#000000" d="M 2005.5,766.5 C 2007.1,767.287 2007.77,768.62 2007.5,770.5C 2006.5,770.5 2005.5,770.5 2004.5,770.5C 2004.43,769.041 2004.77,767.708 2005.5,766.5 Z"/></g>
</svg>
