<?xml version="1.0" encoding="UTF-8"?>
<!DOCTYPE svg PUBLIC "-//W3C//DTD SVG 1.1//EN" "http://www.w3.org/Graphics/SVG/1.1/DTD/svg11.dtd">
<svg xmlns="http://www.w3.org/2000/svg" version="1.1" width="2400px" height="831px" style="shape-rendering:geometricPrecision; text-rendering:geometricPrecision; image-rendering:optimizeQuality; fill-rule:evenodd; clip-rule:evenodd" xmlns:xlink="http://www.w3.org/1999/xlink">
<g><path style="opacity:0.993" fill="#00ce83" d="M 514.5,485.5 C 514.631,484.761 514.464,484.094 514,483.5C 511.723,484.117 509.556,484.784 507.5,485.5C 491.544,484.232 475.544,483.399 459.5,483C 441.777,480.125 423.777,477.791 405.5,476C 383.278,470.568 360.945,465.235 338.5,460C 325.22,454.594 311.553,450.26 297.5,447C 275.477,438.798 253.477,429.964 231.5,420.5C 212.047,411.536 192.713,402.37 173.5,393C 162.813,386.264 151.813,380.097 140.5,374.5C 140.167,373.5 139.833,372.5 139.5,371.5C 142.128,364.463 145.962,358.13 151,352.5C 152.119,348.929 153.785,345.596 156,342.5C 207.36,272.81 275.526,229.643 360.5,213C 354.216,178.901 348.216,144.734 342.5,110.5C 329.306,107.809 319.306,100.642 312.5,89C 300.446,67.6005 302.279,47.4338 318,28.5C 335.3,12.4474 354.8,8.61404 376.5,17C 402.864,33.0214 410.697,55.8547 400,85.5C 397.752,88.328 395.752,91.328 394,94.5C 390.313,97.3531 387.147,100.686 384.5,104.5C 385.778,120.244 388.611,135.577 393,150.5C 393.594,156.175 394.26,161.842 395,167.5C 396.667,174.5 398.333,181.5 400,188.5C 400.333,193.5 400.667,198.5 401,203.5C 401.692,204.025 402.192,204.692 402.5,205.5C 405.5,205.833 408.5,206.167 411.5,206.5C 417.745,206.283 423.911,205.616 430,204.5C 450.194,205.694 470.361,207.527 490.5,210C 503.536,213.968 517.036,216.802 531,218.5C 541.961,222.83 553.127,226.663 564.5,230C 574.549,233.911 584.382,238.411 594,243.5C 599.927,237.016 604.427,229.516 607.5,221C 613.888,212.002 619.388,202.502 624,192.5C 628.961,187.368 632.461,181.368 634.5,174.5C 642.298,163.031 649.298,151.197 655.5,139C 646.748,125.346 645.248,110.846 651,95.5C 654.089,91.7511 656.756,87.7511 659,83.5C 674.354,69.468 692.02,65.8014 712,72.5C 718.215,76.089 723.882,80.4224 729,85.5C 743.669,109.311 740.836,130.811 720.5,150C 717.612,151.092 714.945,152.592 712.5,154.5C 705.388,157.323 698.221,159.656 691,161.5C 686.89,171.046 681.724,180.046 675.5,188.5C 674.785,191.709 673.618,194.709 672,197.5C 664.858,208.475 657.858,219.475 651,230.5C 645.229,242.255 639.063,253.755 632.5,265C 632.833,265.833 633.167,266.667 633.5,267.5C 637.628,269.398 641.628,271.565 645.5,274C 690.599,307.098 725.099,348.932 749,399.5C 750.489,404.462 752.656,409.129 755.5,413.5C 756.983,420.448 759.15,427.115 762,433.5C 762.808,435.579 762.641,437.579 761.5,439.5C 747.908,445.444 733.741,449.777 719,452.5C 713.552,453.842 708.385,455.675 703.5,458C 675.501,464.51 647.168,470.51 618.5,476C 583.892,479.732 549.225,482.899 514.5,485.5 Z"/></g>
<g><path style="opacity:0.995" fill="#00cf84" d="M 2249.5,354.5 C 2264.1,357.205 2278.76,359.538 2293.5,361.5C 2293.67,430.501 2293.5,499.501 2293,568.5C 2266.07,576.843 2238.57,579.343 2210.5,576C 2179.67,569.167 2160.83,550.333 2154,519.5C 2149.13,494.326 2152.46,470.326 2164,447.5C 2176.82,428.839 2194.65,419.839 2217.5,420.5C 2228.51,420.083 2239.01,422.083 2249,426.5C 2249.5,402.502 2249.67,378.502 2249.5,354.5 Z M 2226.5,456.5 C 2234.34,456.667 2241.67,458.667 2248.5,462.5C 2249.83,488.066 2249.83,513.566 2248.5,539C 2214.5,545.668 2197.17,531.668 2196.5,497C 2196.02,484.222 2199.69,472.888 2207.5,463C 2213.36,459.127 2219.69,456.961 2226.5,456.5 Z"/></g>
<g><path style="opacity:0.996" fill="#00cf83" d="M 935.5,363.5 C 952.863,363.159 970.196,363.659 987.5,365C 1042.18,372.36 1064.35,403.194 1054,457.5C 1048.51,476.325 1036.68,489.491 1018.5,497C 994.264,505.592 969.264,509.092 943.5,507.5C 943.5,530.833 943.5,554.167 943.5,577.5C 927.167,577.5 910.833,577.5 894.5,577.5C 894.5,507.833 894.5,438.167 894.5,368.5C 908.296,366.746 921.963,365.08 935.5,363.5 Z M 960.5,404.5 C 968.494,405.167 976.494,406.001 984.5,407C 1004.16,413.234 1010.99,426.4 1005,446.5C 1001.77,454.063 996.27,459.229 988.5,462C 983.594,463.476 978.594,464.476 973.5,465C 963.506,465.5 953.506,465.666 943.5,465.5C 943.5,445.5 943.5,425.5 943.5,405.5C 949.358,405.822 955.025,405.489 960.5,404.5 Z"/></g>
<g><path style="opacity:0.994" fill="#00cf84" d="M 1707.5,363.5 C 1723.17,363.333 1738.84,363.5 1754.5,364C 1763.32,379.809 1771.49,395.976 1779,412.5C 1790.28,438.051 1801.28,463.717 1812,489.5C 1829.52,447.116 1848.69,405.449 1869.5,364.5C 1884.49,363.501 1899.49,363.167 1914.5,363.5C 1922.91,434.605 1928.58,505.938 1931.5,577.5C 1915.5,577.5 1899.5,577.5 1883.5,577.5C 1882.59,531.393 1880.09,485.393 1876,439.5C 1860.33,476.167 1844.67,512.833 1829,549.5C 1817.23,550.82 1805.4,550.82 1793.5,549.5C 1777.67,512.5 1761.83,475.5 1746,438.5C 1742.38,484.77 1739.88,531.103 1738.5,577.5C 1722.49,577.833 1706.49,577.499 1690.5,576.5C 1693.94,505.338 1699.61,434.338 1707.5,363.5 Z"/></g>
<g><path style="opacity:0.994" fill="#00cf84" d="M 1157.5,419.5 C 1200.76,418.278 1225.6,438.945 1232,481.5C 1232.67,491.833 1232.67,502.167 1232,512.5C 1200.24,513.496 1168.41,513.829 1136.5,513.5C 1138.16,522.994 1143.16,530.16 1151.5,535C 1163.32,540.079 1175.65,541.745 1188.5,540C 1198.72,538.777 1208.72,536.611 1218.5,533.5C 1220.13,545.097 1222.13,556.597 1224.5,568C 1202.87,575.995 1180.54,578.995 1157.5,577C 1123.22,573.377 1102.05,554.877 1094,521.5C 1090.07,501.028 1091.74,481.028 1099,461.5C 1110.9,436.81 1130.4,422.81 1157.5,419.5 Z M 1160.5,455.5 C 1178.85,455.683 1189.18,464.85 1191.5,483C 1173.17,483.5 1154.84,483.667 1136.5,483.5C 1138.04,468.322 1146.04,458.989 1160.5,455.5 Z"/></g>
<g><path style="opacity:0.994" fill="#00cf84" d="M 1335.5,419.5 C 1361.21,418.396 1386.38,421.396 1411,428.5C 1411.67,477.833 1411.67,527.167 1411,576.5C 1406.61,611.772 1386.78,631.605 1351.5,636C 1325.67,638.583 1300.33,636.083 1275.5,628.5C 1277.86,615.388 1280.69,602.388 1284,589.5C 1306.26,599.016 1329.09,600.85 1352.5,595C 1363.71,587.881 1368.05,577.714 1365.5,564.5C 1345.27,572.307 1324.93,572.474 1304.5,565C 1283.74,554.552 1271.9,537.718 1269,514.5C 1265.01,490.763 1269.35,468.763 1282,448.5C 1295.78,431.358 1313.62,421.691 1335.5,419.5 Z M 1340.5,456.5 C 1349.2,456.289 1357.87,456.623 1366.5,457.5C 1366.5,481.167 1366.5,504.833 1366.5,528.5C 1328.11,540.958 1310.94,526.958 1315,486.5C 1317.27,471.069 1325.77,461.069 1340.5,456.5 Z"/></g>
<g><path style="opacity:0.993" fill="#00cf84" d="M 1504.5,419.5 C 1520.05,418.854 1535.05,421.354 1549.5,427C 1559.12,431.95 1565.95,439.45 1570,449.5C 1572.82,457.258 1574.48,465.258 1575,473.5C 1575.5,505.832 1575.67,538.165 1575.5,570.5C 1559.29,573.535 1542.96,575.702 1526.5,577C 1509.93,578.402 1493.6,577.068 1477.5,573C 1456.78,565.255 1446.45,550.255 1446.5,528C 1447.01,507.632 1456.68,493.632 1475.5,486C 1494.86,480.127 1514.53,478.96 1534.5,482.5C 1533.64,464.308 1523.97,455.308 1505.5,455.5C 1491.97,456.2 1478.63,458.2 1465.5,461.5C 1464.16,449.785 1462.49,438.119 1460.5,426.5C 1475.13,423.061 1489.79,420.728 1504.5,419.5 Z M 1510.5,509.5 C 1518.26,509.353 1525.92,510.02 1533.5,511.5C 1534.5,521.812 1534.83,532.145 1534.5,542.5C 1525.2,543.585 1515.87,543.752 1506.5,543C 1491.7,540.546 1486.86,532.379 1492,518.5C 1496.98,512.924 1503.15,509.924 1510.5,509.5 Z"/></g>
<g><path style="opacity:0.994" fill="#00cf84" d="M 2028.5,420.5 C 2059.61,416.138 2084.78,426.138 2104,450.5C 2115.2,470.041 2119.2,491.041 2116,513.5C 2110.66,551.176 2089.16,572.342 2051.5,577C 2015.73,580.818 1989.57,566.985 1973,535.5C 1964.76,512.281 1964.43,488.948 1972,465.5C 1982.81,440.173 2001.64,425.173 2028.5,420.5 Z M 2034.5,456.5 C 2056.97,454.477 2070.47,464.477 2075,486.5C 2077.96,501.444 2075.63,515.444 2068,528.5C 2058.55,539.317 2046.71,543.151 2032.5,540C 2018.63,535.429 2010.46,525.929 2008,511.5C 2005.17,496.577 2007.51,482.577 2015,469.5C 2020.17,463.009 2026.67,458.676 2034.5,456.5 Z"/></g>
<g><path style="opacity:0.986" fill="#00ce83" d="M 204.5,429.5 C 209.708,432.524 214.541,436.191 219,440.5C 228.29,450.625 237.79,460.625 247.5,470.5C 249.415,472.071 250.415,474.071 250.5,476.5C 251.978,476.238 253.311,476.571 254.5,477.5C 259.605,484.36 265.605,490.36 272.5,495.5C 281.448,506.616 291.282,516.95 302,526.5C 303.68,530.834 306.68,533.834 311,535.5C 343.33,569.83 375.997,603.83 409,637.5C 409.507,638.996 409.007,640.163 407.5,641C 405.667,641.167 403.833,641.333 402,641.5C 388.144,639.967 374.311,638.134 360.5,636C 345.609,632.821 330.609,629.821 315.5,627C 307.621,624.243 299.621,621.909 291.5,620C 284.757,616.118 277.423,613.785 269.5,613C 256.449,606.906 243.449,600.906 230.5,595C 224.815,590.824 218.815,587.157 212.5,584C 198.077,572.694 187.577,558.528 181,541.5C 176.678,517.456 178.011,493.789 185,470.5C 188.654,461.199 192.32,451.866 196,442.5C 198.459,437.895 201.292,433.562 204.5,429.5 Z"/></g>
<g><path style="opacity:0.987" fill="#00ce83" d="M 129.5,393.5 C 130.995,393.415 131.995,394.081 132.5,395.5C 121.455,436.829 118.955,478.829 125,521.5C 127.172,529.18 129.505,536.847 132,544.5C 135.758,550.055 138.591,556.055 140.5,562.5C 153.06,582.061 168.726,598.727 187.5,612.5C 209.364,626.838 232.697,638.005 257.5,646C 267.724,651.215 278.391,654.882 289.5,657C 301.856,661.319 314.189,665.319 326.5,669C 330.167,669.333 333.833,669.667 337.5,670C 394.298,683.461 452.132,690.295 511,690.5C 553.054,690.906 594.554,686.74 635.5,678C 645.112,673.924 655.112,670.758 665.5,668.5C 709.569,650.264 739.402,618.598 755,573.5C 758.772,554.052 762.439,534.718 766,515.5C 766.5,498.503 766.667,481.503 766.5,464.5C 769.346,464.809 770.846,466.475 771,469.5C 785.948,556.544 765.781,634.211 710.5,702.5C 655.503,765.364 586.836,803.031 504.5,815.5C 468.833,816.833 433.167,816.833 397.5,815.5C 325.554,805.28 262.388,775.947 208,727.5C 207.517,726.552 207.351,725.552 207.5,724.5C 202.03,722.213 197.53,718.547 194,713.5C 193.517,712.552 193.351,711.552 193.5,710.5C 192.448,710.649 191.448,710.483 190.5,710C 121.474,635.575 94.9743,548.075 111,447.5C 113.049,441.002 114.716,434.335 116,427.5C 119.733,418.678 122.733,409.678 125,400.5C 125.84,397.659 127.34,395.325 129.5,393.5 Z"/></g>
<g><path style="opacity:0.984" fill="#00ce83" d="M 697.5,474.5 C 699.167,474.5 700.833,474.5 702.5,474.5C 704.816,480.199 707.316,485.865 710,491.5C 717.518,516.487 720.518,542.153 719,568.5C 716.85,576.875 714.517,585.208 712,593.5C 708.026,599.307 703.86,604.974 699.5,610.5C 691.558,616.611 683.225,622.111 674.5,627C 661.501,631.555 648.501,635.889 635.5,640C 627.869,641.04 620.202,641.706 612.5,642C 603.047,644.46 593.38,646.127 583.5,647C 568.151,647.772 552.817,648.605 537.5,649.5C 531.167,649.333 524.833,649.167 518.5,649C 516.262,647.06 516.262,644.893 518.5,642.5C 578.863,587.134 638.53,531.134 697.5,474.5 Z"/></g>
<g><path style="opacity:0.004" fill="#04fe1c" d="M 514.5,485.5 C 512.167,485.5 509.833,485.5 507.5,485.5C 509.556,484.784 511.723,484.117 514,483.5C 514.464,484.094 514.631,484.761 514.5,485.5 Z"/></g>
</svg>
