<?xml version="1.0" encoding="UTF-8"?>
<!DOCTYPE svg PUBLIC "-//W3C//DTD SVG 1.1//EN" "http://www.w3.org/Graphics/SVG/1.1/DTD/svg11.dtd">
<svg xmlns="http://www.w3.org/2000/svg" version="1.1" width="418px" height="509px" style="shape-rendering:geometricPrecision; text-rendering:geometricPrecision; image-rendering:optimizeQuality; fill-rule:evenodd; clip-rule:evenodd" xmlns:xlink="http://www.w3.org/1999/xlink">
<g><path style="opacity:0.99" fill="#008fd8" d="M 158.5,32.5 C 180.668,34.5121 190.168,46.5121 187,68.5C 185.3,74.3995 181.8,78.8995 176.5,82C 179.652,101.095 183.319,120.095 187.5,139C 224.215,137.443 259.215,144.277 292.5,159.5C 294.895,157.056 297.062,154.39 299,151.5C 308.093,134.819 317.593,118.319 327.5,102C 319.394,88.3032 321.727,76.6365 334.5,67C 347.475,61.4126 358.642,63.9126 368,74.5C 374.066,87.0121 372.233,98.1788 362.5,108C 357.768,110.466 352.768,112.133 347.5,113C 335.774,132.286 324.441,151.786 313.5,171.5C 341.941,190.447 363.441,215.447 378,246.5C 381.078,253.317 383.578,260.317 385.5,267.5C 331.302,285.532 275.635,293.366 218.5,291C 155.166,283.558 96.4989,263.224 42.5,230C 69.8711,182.782 110.538,153.948 164.5,143.5C 161.335,125.176 158.168,106.843 155,88.5C 149.683,85.3339 144.683,81.6672 140,77.5C 132.667,65.8333 132.667,54.1667 140,42.5C 145.505,37.6687 151.671,34.3354 158.5,32.5 Z"/></g>
<g><path style="opacity:0.982" fill="#018fd8" d="M 37.5,241.5 C 38.1386,242.097 38.472,242.93 38.5,244C 32.0476,266.21 30.5476,288.71 34,311.5C 37.1757,325.851 43.509,338.518 53,349.5C 69.1375,364.834 87.9709,376.001 109.5,383C 167.014,402.53 226.014,409.53 286.5,404C 308.956,402.141 329.956,395.808 349.5,385C 368.61,370.51 380.443,351.343 385,327.5C 386.737,312.213 387.903,296.88 388.5,281.5C 399.281,347.409 378.281,400.576 325.5,441C 274.635,475.145 219.301,484.478 159.5,469C 104.857,453.048 64.6907,419.881 39,369.5C 25.5834,339.101 21.5834,307.435 27,274.5C 29.3143,263.064 32.8143,252.064 37.5,241.5 Z"/></g>
<g><path style="opacity:0.978" fill="#018fd8" d="M 77.5,262.5 C 78.552,262.351 79.552,262.517 80.5,263C 117.167,301 153.833,339 190.5,377C 152.222,376.127 116.556,366.127 83.5,347C 70.3774,337.588 64.0441,324.754 64.5,308.5C 64.8233,300.382 65.9899,292.382 68,284.5C 70.921,276.998 74.0877,269.665 77.5,262.5 Z"/></g>
<g><path style="opacity:0.977" fill="#018fd8" d="M 350.5,286.5 C 351.376,286.369 352.043,286.702 352.5,287.5C 359.786,304.097 362.619,321.43 361,339.5C 358.093,353.488 350.26,363.655 337.5,370C 309.332,379.779 280.332,383.612 250.5,381.5C 283.907,349.756 317.24,318.09 350.5,286.5 Z"/></g>
<g><path style="opacity:0.067" fill="#000000" d="M 319.5,462.5 C 320.833,463.167 320.833,463.167 319.5,462.5 Z"/></g>
</svg>
