<?xml version="1.0" standalone="no"?>
<!DOCTYPE svg PUBLIC "-//W3C//DTD SVG 20010904//EN"
 "http://www.w3.org/TR/2001/REC-SVG-20010904/DTD/svg10.dtd">
<svg version="1.0" xmlns="http://www.w3.org/2000/svg"
 width="2249.000000pt" height="813.000000pt" viewBox="0 0 2249.000000 813.000000"
 preserveAspectRatio="xMidYMid meet">

<g transform="translate(0.000000,813.000000) scale(0.100000,-0.100000)"
fill="#000000" stroke="none">
<path d="M17198 7871 c-73 -15 -164 -69 -214 -127 -59 -66 -103 -148 -104
-189 0 -17 -4 -45 -10 -64 -20 -70 25 -236 82 -302 13 -15 34 -40 48 -57 22
-27 157 -102 184 -102 36 -1 55 -68 72 -260 4 -36 10 -69 15 -75 5 -5 9 -27 9
-50 0 -23 4 -45 9 -50 5 -6 11 -28 14 -50 8 -70 29 -189 38 -210 4 -11 10 -36
12 -55 3 -19 13 -88 22 -153 16 -110 16 -119 1 -136 -10 -11 -32 -21 -49 -24
-18 -2 -57 -12 -87 -21 -30 -9 -71 -19 -90 -23 -19 -3 -39 -9 -45 -13 -5 -4
-23 -10 -40 -14 -68 -16 -173 -50 -221 -72 -28 -13 -54 -24 -57 -24 -4 0 -30
-11 -59 -23 -29 -13 -69 -30 -88 -37 -19 -8 -53 -24 -75 -36 -22 -12 -78 -42
-125 -66 -269 -142 -527 -344 -765 -600 -129 -139 -199 -231 -317 -415 -89
-140 -93 -115 34 -190 57 -34 568 -291 623 -314 37 -15 130 -56 175 -77 25
-11 74 -32 110 -47 71 -28 79 -32 160 -68 30 -14 91 -37 135 -52 44 -15 132
-46 195 -70 63 -24 160 -56 215 -71 55 -15 107 -31 115 -35 8 -4 35 -13 60
-19 25 -6 61 -16 80 -21 19 -6 73 -19 120 -29 47 -10 117 -26 155 -35 293 -70
499 -101 905 -136 346 -29 1187 30 1560 110 25 6 79 17 120 25 234 45 289 56
325 66 22 7 63 17 90 24 28 7 57 15 65 19 8 3 69 19 135 36 112 27 285 80 330
101 11 5 37 14 58 20 20 6 37 15 37 19 0 4 -14 46 -31 92 -17 46 -34 96 -39
111 -13 42 -150 317 -186 374 -18 28 -44 72 -59 97 -25 47 -75 115 -188 262
-84 110 -360 384 -485 483 -56 45 -105 82 -108 82 -4 0 -34 21 -89 63 -5 4
-22 16 -37 28 -36 26 -35 37 6 101 18 29 46 78 61 108 15 30 30 57 34 60 7 6
22 32 74 130 22 41 47 83 55 92 17 20 80 135 89 161 3 9 9 17 14 17 5 0 9 5 9
10 0 6 12 29 26 52 14 23 36 60 49 82 54 99 80 141 87 144 4 2 8 10 8 18 0 8
4 14 9 14 5 0 12 12 16 27 12 48 44 83 75 83 45 0 131 21 170 40 62 32 144
119 172 185 63 148 63 188 -4 335 -74 161 -252 248 -432 210 -130 -27 -245
-128 -278 -245 -6 -22 -15 -44 -20 -50 -4 -5 -8 -40 -8 -78 0 -70 19 -146 52
-205 29 -52 32 -44 -82 -232 -33 -55 -60 -103 -60 -107 0 -5 -11 -24 -24 -44
-24 -35 -31 -48 -96 -164 -18 -32 -47 -82 -64 -110 -18 -27 -37 -61 -44 -75
-6 -14 -18 -34 -24 -45 -37 -58 -79 -129 -120 -205 -74 -135 -61 -128 -152
-81 -43 23 -82 41 -87 41 -5 0 -31 10 -57 21 -92 41 -110 49 -116 49 -3 0 -25
9 -49 20 -43 20 -191 64 -349 104 -48 12 -90 25 -94 29 -4 4 -24 7 -44 7 -20
0 -40 4 -45 9 -6 5 -37 11 -70 14 -103 9 -287 27 -370 37 -98 12 -393 12 -455
0 -59 -11 -80 1 -80 45 0 18 -4 36 -9 39 -5 3 -11 23 -14 43 -3 21 -13 81 -22
133 -16 97 -25 151 -45 275 -20 131 -36 220 -43 235 -3 8 -8 31 -11 50 -2 19
-11 75 -20 125 -8 49 -11 95 -8 101 4 6 25 26 46 45 46 39 97 117 117 174 7
22 17 45 22 52 12 16 11 187 -1 209 -6 11 -24 50 -42 87 -42 90 -105 154 -190
193 -19 9 -44 21 -54 26 -25 13 -200 19 -248 9z"/>
<path d="M8345 5031 c-99 -27 -199 -54 -223 -60 l-43 -12 3 -1112 3 -1112 23
-59 c63 -168 191 -281 372 -333 62 -17 142 -18 1705 -18 1799 0 1725 -2 1876
59 l62 25 40 -21 c80 -41 205 -58 467 -64 266 -7 497 6 595 32 144 38 253 119
313 232 65 121 65 126 70 685 2 302 0 507 -6 507 -5 0 -111 -36 -237 -80 -126
-44 -230 -80 -232 -80 -1 0 -3 -167 -3 -370 0 -395 -2 -414 -49 -440 -12 -6
-139 -10 -340 -10 -319 0 -320 0 -346 23 -17 14 -30 39 -36 67 -4 25 -8 235
-9 468 0 232 -2 422 -4 422 -3 0 -355 -122 -433 -150 l-33 -12 0 -365 c0 -319
-2 -369 -17 -400 -9 -19 -27 -39 -40 -44 -13 -5 -186 -9 -385 -9 -328 0 -360
1 -354 16 14 36 36 190 36 248 0 74 -22 171 -51 229 -62 122 -201 244 -367
323 -62 29 -1002 394 -1016 394 -2 0 -81 -84 -175 -186 l-172 -187 528 -203
c290 -112 564 -222 609 -243 92 -46 164 -105 188 -155 20 -43 21 -129 0 -189
l-16 -47 -1019 0 -1018 0 -21 22 c-11 12 -25 38 -30 57 -6 23 -10 437 -10
1119 0 859 -3 1082 -12 1081 -7 0 -94 -22 -193 -48z"/>
<path d="M15036 3855 c-10 -55 -22 -110 -27 -123 -5 -13 -9 -36 -9 -52 0 -16
-4 -39 -10 -52 -5 -13 -15 -88 -20 -168 -6 -80 -13 -167 -17 -195 -3 -27 0
-93 6 -145 6 -52 15 -142 20 -200 9 -94 16 -139 36 -235 4 -16 13 -64 22 -105
18 -89 30 -131 54 -186 10 -23 21 -55 24 -70 4 -16 15 -48 26 -71 10 -24 19
-48 19 -54 0 -6 27 -66 60 -133 33 -68 60 -126 60 -129 0 -3 32 -56 70 -117
39 -61 70 -113 70 -116 0 -6 48 -72 68 -92 6 -8 17 -23 24 -35 9 -18 71 -100
88 -117 3 -3 34 -39 70 -80 35 -41 103 -113 150 -160 204 -204 319 -294 635
-498 11 -6 27 -15 35 -19 8 -4 20 -10 25 -15 6 -4 54 -30 108 -58 53 -27 105
-54 115 -59 9 -5 42 -19 72 -31 30 -12 70 -28 88 -36 34 -15 94 -40 127 -54
11 -4 38 -13 60 -19 103 -28 181 -52 230 -71 43 -16 158 -40 291 -60 76 -11
159 -26 184 -31 65 -16 632 -23 760 -10 203 21 492 73 565 102 11 4 85 28 165
54 80 26 181 63 225 84 44 21 98 44 120 52 22 8 42 16 45 19 3 3 30 18 60 34
30 16 80 42 110 58 59 31 152 88 160 99 3 3 27 18 54 33 27 15 70 44 95 65 25
20 80 64 121 97 63 50 151 127 194 170 198 201 285 308 419 517 61 94 207 373
207 396 0 7 9 33 50 136 4 11 15 43 25 70 9 28 21 59 25 70 10 22 50 218 58
280 2 22 8 45 12 50 4 6 10 53 14 105 3 52 11 143 17 202 10 94 5 247 -7 235
-3 -2 -14 -71 -24 -153 -11 -82 -24 -169 -29 -194 -4 -25 -16 -85 -26 -135
-20 -105 -45 -196 -57 -209 -4 -6 -8 -16 -8 -23 0 -28 -123 -262 -182 -347
-122 -176 -334 -359 -503 -436 -33 -15 -85 -39 -116 -53 -80 -37 -155 -64
-229 -82 -36 -9 -81 -21 -100 -27 -153 -44 -309 -73 -470 -87 -69 -6 -147 -13
-175 -16 -355 -36 -751 -36 -1145 0 -30 3 -120 10 -200 15 -135 10 -265 27
-385 50 -55 10 -164 30 -210 37 -16 2 -39 8 -50 13 -11 4 -63 15 -115 23 -130
21 -201 36 -225 47 -11 4 -31 11 -45 14 -14 3 -50 11 -80 19 -30 9 -108 29
-172 46 -107 28 -132 36 -193 62 -11 4 -79 29 -152 54 -72 24 -160 58 -195 74
-35 16 -99 44 -143 61 -44 18 -84 36 -90 40 -5 4 -46 27 -90 51 -44 23 -106
61 -139 83 -32 23 -75 52 -96 66 -186 125 -383 362 -470 565 -19 44 -36 86
-49 118 -6 15 -15 37 -21 50 -14 31 -29 98 -45 197 -18 105 -20 569 -4 704 16
133 6 158 -15 41z"/>
<path d="M15822 3788 c-29 -57 -52 -109 -52 -116 0 -7 -9 -31 -19 -55 -11 -23
-32 -82 -46 -132 -15 -49 -32 -101 -39 -114 -16 -35 -15 -446 2 -462 6 -7 12
-19 12 -27 0 -19 48 -118 88 -181 82 -130 218 -235 477 -368 11 -6 34 -17 51
-26 17 -9 71 -30 120 -48 49 -17 93 -36 99 -40 5 -5 16 -9 25 -9 8 0 28 -7 44
-15 15 -8 37 -15 47 -15 11 0 19 -4 19 -10 0 -5 9 -10 20 -10 11 0 55 -10 98
-21 42 -12 92 -25 110 -30 17 -5 49 -14 70 -20 20 -6 62 -16 92 -23 30 -7 62
-15 70 -18 8 -3 56 -11 105 -18 50 -7 97 -14 105 -17 22 -7 196 -33 260 -39
30 -3 64 -10 76 -15 11 -6 37 -9 57 -7 l37 3 -122 126 c-68 69 -233 240 -368
380 -135 140 -302 313 -371 384 -70 72 -176 181 -235 244 -60 62 -160 166
-222 230 -62 64 -154 159 -205 211 -117 122 -349 360 -351 360 -1 0 -25 -46
-54 -102z"/>
<path d="M1386 3562 c-44 -125 -81 -233 -84 -239 -3 -10 94 -13 466 -13 l471
0 7 -47 c4 -27 8 -102 8 -168 1 -114 0 -123 -29 -180 -55 -109 -86 -115 -597
-115 l-378 0 0 -240 0 -240 318 0 c496 1 641 18 798 95 134 65 236 206 285
390 17 64 23 119 26 278 6 208 -3 326 -39 565 l-22 142 -575 0 -576 0 -79
-228z"/>
<path d="M5360 3295 l0 -495 -385 0 -385 0 0 490 0 490 -693 0 -694 0 -11 -38
c-17 -56 -48 -211 -68 -342 -24 -152 -24 -442 -1 -552 49 -234 164 -383 355
-457 114 -44 221 -60 441 -67 l198 -7 -8 -47 c-28 -175 -140 -263 -334 -262
-103 0 -186 22 -307 79 -54 26 -100 44 -102 42 -3 -2 -39 -83 -81 -179 -86
-198 -88 -177 17 -231 202 -103 437 -139 680 -105 132 19 204 41 292 90 191
107 281 269 311 559 l6 57 727 0 c948 1 1021 6 1202 92 154 74 250 199 301
393 27 102 36 346 20 507 -11 105 -57 356 -81 441 l-11 37 -694 0 -695 0 0
-495z m-1240 -240 l0 -255 -141 0 c-278 0 -378 35 -441 151 -21 40 -23 57 -23
174 0 72 4 142 8 158 l7 27 295 0 295 0 0 -255z m2314 196 c26 -231 -8 -346
-117 -403 -63 -32 -176 -48 -338 -48 l-149 0 0 255 0 255 299 0 298 0 7 -59z"/>
<path d="M20579 3439 c-13 -11 -51 -46 -84 -77 -83 -80 -218 -206 -365 -342
-69 -63 -145 -136 -170 -161 -25 -25 -144 -137 -265 -249 -121 -111 -236 -219
-256 -239 -49 -49 -280 -266 -413 -387 -83 -76 -104 -100 -90 -103 25 -5 461
7 539 15 302 29 401 46 595 98 141 37 167 46 195 60 17 9 37 16 46 16 8 0 19
4 25 9 5 5 36 24 69 42 152 82 241 183 315 364 28 66 44 264 31 388 -17 174
-38 304 -51 322 -4 6 -11 26 -15 45 -3 19 -15 54 -26 77 -10 24 -19 47 -19 52
0 5 -8 27 -18 50 l-19 41 -24 -21z"/>
<path d="M10022 1889 c-49 -14 -118 -88 -132 -140 -20 -73 -9 -162 26 -211 61
-88 200 -124 299 -79 173 78 180 332 12 416 -55 27 -139 33 -205 14z"/>
<path d="M11797 1889 c-136 -20 -219 -168 -173 -306 38 -115 171 -178 300
-142 46 13 124 82 142 126 19 43 18 145 -2 191 -41 99 -143 149 -267 131z"/>
<path d="M12329 1889 c-120 -18 -189 -103 -189 -234 1 -167 179 -274 335 -201
97 45 141 122 132 233 -11 140 -127 224 -278 202z"/>
<path d="M13156 1885 c-139 -49 -189 -248 -91 -363 86 -100 231 -111 343 -25
100 76 100 262 -1 350 -59 52 -166 68 -251 38z"/>
</g>
</svg>
